<svg width="69" height="69" viewBox="0 0 69 69" fill="none" xmlns="http://www.w3.org/2000/svg">
<path d="M67.6452 0C69.7112 15.3806 69.3669 27.7769 66.2678 35.6967L37.8022 14.5771C43.4265 8.72331 54.9045 1.72171 67.6452 0Z" fill="#DADEE0"/>
<path d="M63.9723 34.6637L52.2646 19.3979C52.2646 19.3979 54.4455 11.0189 65.5792 5.16513C68.9078 18.4797 63.9723 34.6637 63.9723 34.6637Z" fill="#F7A4A4"/>
<path d="M59.4958 31.2203L52.2646 21.8083C52.2646 21.8083 55.2489 16.0693 62.1358 12.3963C58.1184 21.0048 59.4958 31.2203 59.4958 31.2203Z" fill="#F78D8D"/>
<path d="M1.30224 0C-0.763806 15.3806 -0.419465 27.7769 2.67961 35.6967L31.1452 14.4623C25.5209 8.72331 14.0429 1.72171 1.30224 0Z" fill="#DADEE0"/>
<path d="M4.97549 34.6637L16.7979 19.3979C16.7979 19.3979 14.617 11.0189 3.48335 5.16513C0.0399334 18.4797 4.97549 34.6637 4.97549 34.6637Z" fill="#F7A4A4"/>
<path d="M9.45193 31.2203L16.7979 21.8083C16.7979 21.8083 13.8136 16.0693 6.92676 12.3963C10.8293 21.0048 9.45193 31.2203 9.45193 31.2203Z" fill="#F78D8D"/>
<path d="M64.5462 56.0129C65.4644 54.9798 66.1531 54.1764 66.4974 53.4877C68.3339 50.5034 68.9078 47.4043 68.9078 47.4043L66.6122 47.8634C66.6122 47.8634 69.2522 44.9939 68.5635 38.9106L66.2679 41.321C66.2679 41.321 68.4487 35.1228 66.6122 29.3838L64.087 31.2203C64.087 31.2203 64.8905 28.9247 64.2018 27.3178L63.1688 28.1212C63.1688 28.1212 65.1201 22.7265 63.3983 20.5457C62.3653 23.7596 61.2175 23.7596 61.2175 23.7596C61.2175 23.7596 62.5949 21.3492 61.5619 20.3161C60.4141 22.1526 59.4958 21.0048 59.4958 20.4309C59.6106 19.7422 59.2663 18.7092 62.5949 18.1353C59.9549 16.5284 56.7411 17.6762 56.7411 17.6762C56.7411 17.6762 56.8559 15.9545 59.1515 16.0693C56.9706 14.2328 53.9864 15.3806 53.9864 15.3806C49.2804 11.8224 42.9674 9.75635 34.3589 9.75635C25.8651 9.75635 19.5522 11.8224 14.7314 15.3806C14.7314 15.3806 11.7472 14.3476 9.56633 16.0693C11.8619 15.9545 11.9767 17.6762 11.9767 17.6762C11.9767 17.6762 8.87764 16.5284 6.12291 18.1353C9.45155 18.5944 9.22198 19.6275 9.22198 20.4309C9.22198 21.0048 8.30374 22.1526 7.15594 20.3161C6.00813 21.3492 7.50028 23.7596 7.50028 23.7596C7.50028 23.7596 6.35247 23.7596 5.31945 20.5457C3.59774 22.8413 5.54901 28.1212 5.54901 28.1212L4.51599 27.3178C3.8273 28.9247 4.63077 31.2203 4.63077 31.2203L2.33516 29.3838C0.383892 35.1228 2.6795 41.321 2.6795 41.321L0.498673 38.9106C-0.30479 44.9939 2.33516 47.8634 2.33516 47.8634L0.0395508 47.4043C0.0395508 47.4043 0.613453 50.5034 2.44994 53.4877C2.6795 54.0616 3.36818 54.9798 4.40121 56.0129L4.51599 56.1276C9.22198 60.8336 20.8148 68.8683 34.4737 68.8683C48.1325 68.8683 59.7254 60.8336 64.4314 56.1276C64.4314 56.0129 64.5462 56.0129 64.5462 56.0129Z" fill="#DADEE0"/>
<path d="M41.0158 10.1007C38.9498 9.75635 36.7689 9.64157 34.4733 9.64157C32.1777 9.64157 29.9969 9.75635 27.9309 10.1007C28.7343 14.5771 31.1447 17.6762 34.4733 23.4152C37.9168 17.5614 40.2124 14.4623 41.0158 10.1007ZM51.4608 13.5441C49.28 12.2815 46.7548 11.3633 44.0001 10.6746C44.6888 13.3145 46.1809 15.151 48.1322 18.5944C49.6244 16.1841 50.6574 15.4954 51.4608 13.5441ZM24.9466 10.6746C22.0771 11.3633 19.6667 12.2815 17.4858 13.5441C18.2893 15.6102 19.4371 16.1841 20.8145 18.5944C22.8805 15.0363 24.2579 13.1998 24.9466 10.6746Z" fill="#94989B"/>
<path d="M39.0652 41.321C38.1469 40.2879 35.2774 40.1732 34.474 40.1732C33.6705 40.1732 30.801 40.2879 29.8827 41.321C29.1941 42.1244 29.768 43.9609 31.4897 45.6826C32.6375 46.7156 33.6705 47.06 34.474 47.06C35.2774 47.06 36.4252 46.7156 37.4582 45.6826C39.2947 44.0757 39.7539 42.1244 39.0652 41.321Z" fill="#4C5359"/>
<path d="M25.6359 33.0568C25.6359 33.0568 25.062 27.7769 20.4708 26.17C15.3056 24.2187 11.7475 28.9247 10.7144 31.5646C9.33707 35.4672 11.0588 39.7141 11.6327 40.7471C11.977 41.4358 15.8795 44.42 24.4881 41.5505C24.4881 41.5505 26.6689 37.1889 25.6359 33.0568Z" fill="white"/>
<path d="M25.636 33.0568C25.1769 31.2203 24.3734 29.6134 22.996 28.3508C22.4221 27.7769 21.6187 27.203 20.8152 26.9734C20.4709 26.8586 20.0117 26.6291 19.5526 26.6291C19.3231 26.5143 18.8639 26.3995 18.4048 26.3995C16.6831 26.3995 15.191 27.0882 13.9284 28.236C12.6658 29.3838 11.7476 30.876 11.2884 32.4829C10.8293 34.0898 10.9441 35.9263 11.2884 37.5332C11.518 38.3367 11.7476 39.2549 12.0919 40.0584L12.2067 40.288L12.3215 40.4027C12.4362 40.5175 12.551 40.6323 12.7806 40.7471C13.1249 40.9766 13.4693 41.2062 13.8136 41.321C15.4205 42.0097 17.1422 42.2392 18.9787 42.2392C20.8152 42.2392 22.6517 41.8949 24.4882 41.4358C22.7665 42.2392 20.93 42.6983 19.0935 43.0427C17.257 43.2722 15.191 43.2722 13.3545 42.5836C12.8954 42.4688 12.4362 42.2392 11.9771 41.8949C11.7476 41.7801 11.518 41.5505 11.2884 41.4358C11.1737 41.4358 11.1737 41.321 11.0589 41.2062L10.9441 41.0914L10.8293 40.9766L10.5997 40.6323C10.1406 39.7141 9.79629 38.7958 9.56673 37.8776C9.1076 36.0411 8.99282 33.975 9.45194 32.0238C10.0258 30.0725 11.1737 28.3508 12.6658 26.9734C14.1579 25.7108 16.224 24.7926 18.29 25.0222C18.7492 25.1369 19.3231 25.1369 19.7822 25.3665C20.2413 25.4813 20.7004 25.7108 21.1595 25.9404C22.0778 26.3995 22.7665 27.0882 23.4552 27.7769C24.8325 29.3838 25.5212 31.2203 25.636 33.0568Z" fill="#B2B6B8"/>
<path d="M43.312 33.0568C43.312 33.0568 43.8859 27.7769 48.4771 26.17C53.6422 24.2187 57.2004 28.9247 58.2334 31.5646C59.6108 35.4672 57.8891 39.7141 57.3152 40.7471C56.9708 41.4358 53.0683 44.42 44.4598 41.5505C44.4598 41.5505 42.2789 37.1889 43.312 33.0568Z" fill="white"/>
<path d="M43.3115 33.0568C43.4263 31.2203 44.115 29.3838 45.2628 27.7769C45.8367 26.9734 46.6402 26.3995 47.5584 25.9404C48.0175 25.7108 48.4766 25.4813 48.9358 25.3665C49.3949 25.2517 49.9688 25.1369 50.4279 25.0222C52.494 24.7926 54.56 25.7108 56.0521 26.9734C57.5443 28.3508 58.6921 29.9577 59.266 32.0238C59.7251 33.975 59.6103 36.0411 59.1512 37.9923C58.9217 38.9106 58.5773 39.8288 58.1182 40.7471L57.8886 41.0914L57.7739 41.2062V41.321L57.5443 41.5505C57.3147 41.7801 57.0852 41.8949 56.8556 42.0097L55.4782 42.6983C53.527 43.387 51.5757 43.387 49.7392 43.1575C47.9027 42.8131 46.0663 42.354 44.3445 41.5505C46.181 41.8949 48.0175 42.2392 49.854 42.354C51.6905 42.354 53.527 42.1244 55.0191 41.4358C55.3635 41.321 55.8226 41.0914 56.0521 40.8619C56.1669 40.7471 56.3965 40.6323 56.5113 40.5175L56.6261 40.4027L56.7408 40.1732C57.0852 39.3697 57.3147 38.5663 57.5443 37.648C57.8886 35.9263 58.0034 34.2046 57.5443 32.5977C57.0852 30.9907 56.1669 29.4986 54.9043 28.3508C53.6418 27.203 52.1496 26.5143 50.4279 26.5143C49.9688 26.5143 49.6244 26.6291 49.1653 26.6291C48.7062 26.7439 48.3619 26.8586 47.9027 26.9734C47.0993 27.3178 46.4106 27.7769 45.7219 28.3508C44.5741 29.6134 43.7706 31.3351 43.3115 33.0568Z" fill="#B2B6B8"/>
<path d="M48.2475 40.1731C50.7831 40.1731 52.8387 37.8606 52.8387 35.008C52.8387 32.1554 50.7831 29.8429 48.2475 29.8429C45.7118 29.8429 43.6562 32.1554 43.6562 35.008C43.6562 37.8606 45.7118 40.1731 48.2475 40.1731Z" fill="#4C5359"/>
<path d="M20.7001 40.1731C23.2358 40.1731 25.2913 37.8606 25.2913 35.008C25.2913 32.1554 23.2358 29.8429 20.7001 29.8429C18.1644 29.8429 16.1089 32.1554 16.1089 35.008C16.1089 37.8606 18.1644 40.1731 20.7001 40.1731Z" fill="#4C5359"/>
<path d="M49.3952 51.3068C49.3952 50.6182 48.936 49.6999 47.7882 49.4703C44.8039 48.7817 40.2127 48.2078 34.4737 48.2078C28.7347 48.2078 24.1435 48.7817 21.1592 49.3556C20.0114 49.5851 19.5522 50.5034 19.5522 51.1921C19.5522 57.7345 24.4878 64.277 34.4737 64.277C44.4596 64.277 49.3952 57.7345 49.3952 51.3068Z" fill="#4C5359"/>
<path d="M27.0132 60.3745C29.194 61.4075 31.6044 61.9814 34.4739 61.9814C37.3434 61.9814 39.7538 61.4075 41.9346 60.3745C39.8686 59.2267 37.3434 58.538 34.4739 58.538C31.6044 58.538 29.0792 59.2267 27.0132 60.3745Z" fill="#FF717F"/>
</svg>
