<svg width="61" height="45" viewBox="0 0 61 45" fill="none" xmlns="http://www.w3.org/2000/svg">
<path d="M41.3013 40.7904C36.0769 40.7904 31.6562 37.7763 31.6562 34.2599C31.6562 30.7435 36.0769 27.7294 41.3013 27.7294C46.5257 27.7294 50.9463 30.7435 50.9463 34.2599C50.8459 37.7763 46.5257 40.7904 41.3013 40.7904Z" fill="#E07E1E"/>
<path d="M41.3013 28.6336C46.4252 28.6336 50.0421 31.5472 50.0421 34.1594C50.0421 36.7716 46.4252 39.6852 41.3013 39.6852C36.1774 39.6852 32.5605 36.7716 32.5605 34.1594C32.5605 31.5472 36.1774 28.6336 41.3013 28.6336ZM41.3013 26.7247C35.5746 26.7247 30.8525 30.1407 30.8525 34.2599C30.8525 38.3791 35.5746 41.7951 41.3013 41.7951C47.0281 41.7951 51.7501 38.3791 51.7501 34.2599C51.7501 30.0402 47.0281 26.7247 41.3013 26.7247Z" fill="#3E4347"/>
<path d="M26.2308 15.4722C21.5087 15.4722 17.6909 12.2572 17.6909 8.33893C17.6909 4.42064 21.5087 1.20563 26.2308 1.20563C30.9528 1.20563 34.7707 4.42064 34.7707 8.33893C34.7707 12.2572 30.8524 15.4722 26.2308 15.4722Z" fill="#E07E1E"/>
<path d="M26.2312 2.21032C30.3504 2.21032 33.8669 5.02346 33.8669 8.23847C33.8669 11.5539 30.3504 14.2666 26.2312 14.2666C22.112 14.2666 18.5956 11.4535 18.5956 8.23847C18.5956 5.02346 22.0115 2.21032 26.2312 2.21032ZM26.2312 0C21.0068 0 16.7871 3.71736 16.7871 8.23847C16.7871 12.7596 21.0068 16.4769 26.2312 16.4769C31.4556 16.4769 35.6753 12.7596 35.6753 8.23847C35.6753 3.71736 31.4556 0 26.2312 0Z" fill="#3E4347"/>
<path d="M43.7123 22.0027C41.7029 22.0027 39.6936 20.998 38.1865 19.1896C36.7799 17.5821 35.9762 15.4722 35.7753 13.3624C35.6748 11.2525 36.1771 9.44407 37.2823 8.13797C38.287 6.93234 39.6936 6.32953 41.2006 6.32953C43.21 6.32953 45.2194 7.33422 46.7264 9.14267C48.133 10.7502 48.9367 12.86 49.1376 14.9699C49.2381 17.0797 48.7358 18.8882 47.6306 20.1943C46.6259 21.2994 45.3198 22.0027 43.7123 22.0027Z" fill="#E07E1E"/>
<path d="M41.3017 7.23376C43.0097 7.23376 44.8181 8.13798 46.1242 9.74549C47.3299 11.2525 48.1336 13.061 48.2341 14.9699C48.3346 16.6779 47.9327 18.2854 47.0285 19.3905C46.0238 20.5961 44.7177 20.8976 43.8134 20.8976C42.1055 20.8976 40.297 19.9933 38.9909 18.3858C37.7853 16.8788 36.9815 15.0703 36.8811 13.1614C36.7806 11.4535 37.1825 9.84596 38.0867 8.7408C39.0914 7.53517 40.3975 7.23376 41.3017 7.23376ZM41.3017 5.02344C39.5937 5.02344 37.9862 5.72672 36.7806 7.13329C34.0679 10.3483 34.4698 16.075 37.6848 19.7924C39.4933 21.9022 41.7036 23.0074 43.8134 23.0074C45.5214 23.0074 47.1289 22.3041 48.3346 20.8976C51.0472 17.6825 50.6453 11.9558 47.4303 8.23845C45.7224 6.1286 43.4116 5.02344 41.3017 5.02344Z" fill="#3E4347"/>
<path d="M27.0348 43.1012C25.7287 43.1012 24.4226 42.7998 23.0161 42.197C19.1982 40.5895 16.586 37.0731 17.3898 34.4609C17.8921 32.9538 19.6001 31.9492 21.9109 31.9492C23.217 31.9492 24.5231 32.2506 25.9297 32.8534C27.8386 33.6571 29.5466 35.0637 30.6517 36.5707C31.5559 37.9773 31.9578 39.3839 31.5559 40.489C31.0536 42.0965 29.3456 43.1012 27.0348 43.1012Z" fill="#E07E1E"/>
<path d="M22.0116 33.1548C23.2172 33.1548 24.4228 33.4563 25.6284 33.9586C27.4369 34.7623 28.9439 35.968 29.8481 37.3745C30.5514 38.4797 30.8528 39.4844 30.6519 40.1877C30.3505 41.1924 28.8435 41.8957 27.035 41.8957C25.8294 41.8957 24.6238 41.5943 23.4181 41.0919C19.9017 39.5849 17.8923 36.5708 18.3947 34.8628C18.6961 33.8581 20.2031 33.1548 22.0116 33.1548ZM22.0116 30.8441C19.3994 30.8441 17.2895 32.0497 16.5862 34.0591C15.5815 37.1736 18.3947 41.2928 22.7148 43.2018C24.2219 43.8046 25.7289 44.106 27.035 44.106C29.6472 44.106 31.7571 42.9003 32.4603 40.891C33.465 37.7764 30.6519 33.6572 26.3317 31.7483C24.8247 31.1455 23.3177 30.8441 22.0116 30.8441Z" fill="#3E4347"/>
<path d="M33.1633 8.43936C30.0487 7.3342 26.6328 6.63092 22.9154 6.63092C21.8102 6.63092 20.8056 6.73139 19.8009 6.83186C21.6093 11.4534 22.5135 16.4769 22.5135 21.6008C22.5135 27.3276 21.3079 32.9538 19.0976 37.9773C20.3032 38.1782 21.6093 38.1782 22.9154 38.1782C24.6234 38.1782 26.2309 38.1782 27.7379 38.0778C27.2356 35.566 27.0346 32.9538 27.0346 30.2412C27.0346 22.3041 29.1445 14.6684 33.1633 8.43936ZM12.8685 8.74077C3.12299 13.2619 0.309853 23.5097 0.309853 23.5097C0.309853 23.5097 1.01314 24.1125 1.31454 24.8158C1.61595 25.4186 -0.4939 25.72 0.108915 26.7247C1.81689 29.5379 6.84035 33.6571 12.0647 36.0684C14.3755 31.7482 15.5812 26.8252 15.5812 21.6008C15.5812 17.0797 14.6769 12.6591 12.8685 8.74077ZM58.5819 23.6102C58.5819 20.2947 62.5002 17.783 58.5819 13.0609C58.5819 13.0609 56.3716 15.6731 54.2618 17.3811C54.1613 18.6872 54.0608 20.0938 54.0608 21.3999C54.0608 25.0168 54.5632 28.6337 55.5679 32.0496C57.4768 33.0543 58.5819 34.059 58.5819 34.059C62.5002 29.4374 58.5819 27.1266 58.5819 23.6102ZM47.5303 17.1802C44.7172 14.8694 41.9041 12.7595 38.7895 11.0516C37.182 14.9699 36.2778 19.1896 36.2778 23.6102C36.2778 27.9304 37.0816 32.0496 38.5886 35.8674C41.5022 34.8627 44.6167 33.3557 48.3341 31.3463C47.6308 28.1313 47.3294 24.8158 47.3294 21.3999C47.3294 20.0938 47.3294 18.5867 47.5303 17.1802Z" fill="#F29A2E"/>
<path d="M16.4852 21.6009C16.4852 27.0262 15.1791 32.1501 12.9688 36.4703C14.4758 37.0731 16.1838 37.5754 18.0927 37.8769C20.303 33.0543 21.6091 27.5285 21.6091 21.7013C21.6091 16.4769 20.6044 11.5539 18.796 7.1333C16.9875 7.43471 15.2795 7.93705 13.7725 8.53987C15.4805 12.2572 16.4852 16.7783 16.4852 21.6009Z" fill="white"/>
<path d="M19.7001 6.83191C19.3987 6.83191 19.0973 6.93238 18.6954 6.93238C20.5039 11.353 21.5085 16.276 21.5085 21.5004C21.5085 27.4281 20.2025 32.9539 17.9921 37.6759C18.2935 37.7764 18.6954 37.7764 18.9968 37.7764C21.2071 32.7529 22.4128 27.1267 22.4128 21.3999C22.5132 16.4769 21.5085 11.4535 19.7001 6.83191ZM16.4851 21.6009C16.4851 16.8788 15.4804 12.3577 13.7724 8.43942C13.471 8.53988 13.1696 8.64035 12.8682 8.84129C14.6767 12.7596 15.5809 17.1802 15.5809 21.7013C15.5809 26.9257 14.3752 31.8487 12.0645 36.1689C12.3659 36.2694 12.6673 36.4703 12.9687 36.5708C15.179 32.0497 16.4851 27.0262 16.4851 21.6009Z" fill="#3E4347"/>
<path d="M27.939 30.2412C27.939 32.8534 28.2404 35.4656 28.6422 37.9773C31.6563 37.7764 34.5699 37.274 37.6845 36.2693C36.1774 32.4515 35.2732 28.1313 35.2732 23.7107C35.2732 18.9886 36.1774 14.568 37.7849 10.6497C36.5793 9.94641 35.2732 9.34359 33.9671 8.84125C30.2498 14.7689 27.939 22.2036 27.939 30.2412Z" fill="white"/>
<path d="M27.9389 30.2412C27.9389 22.2037 30.2497 14.769 34.0675 8.84133C33.7661 8.74086 33.4647 8.64039 33.1633 8.43945C29.1445 14.6685 27.0347 22.3042 27.0347 30.2412C27.0347 32.8534 27.2356 35.4656 27.738 38.0778C28.0394 38.0778 28.3408 38.0778 28.6422 37.9774C28.2403 35.4656 27.9389 32.8534 27.9389 30.2412ZM38.7896 11.0517C38.4881 10.8507 38.1867 10.7502 37.9858 10.5493C36.3783 14.4676 35.4741 18.8882 35.4741 23.6103C35.4741 28.1314 36.2778 32.3511 37.8853 36.1689L38.7896 35.8675C37.2825 32.0497 36.4788 27.83 36.4788 23.6103C36.2778 19.1896 37.0816 14.9699 38.7896 11.0517Z" fill="#3E4347"/>
<path d="M48.8362 18.1849C48.7357 18.0844 48.5348 17.984 48.4343 17.783C48.3339 19.0891 48.2334 20.2947 48.2334 21.5004C48.2334 24.7154 48.5348 27.9304 49.2381 30.9445C49.439 30.844 49.64 30.6431 49.9414 30.5426C50.7451 30.0403 52.654 30.7435 54.4625 31.5473C53.6587 28.3323 53.1564 25.0168 53.1564 21.5004C53.1564 20.3952 53.2569 19.2901 53.2569 18.1849C51.7498 19.0891 50.2428 19.3905 48.8362 18.1849Z" fill="white"/>
<path d="M48.2337 21.5003C48.2337 20.2947 48.3342 19.0891 48.3342 17.8835C48.0328 17.6825 47.7314 17.3811 47.4299 17.1802C47.3295 18.6872 47.229 20.0938 47.229 21.5003C47.229 24.8158 47.5304 28.1313 48.2337 31.4468C48.5351 31.2458 48.8365 31.1454 49.1379 30.9444C48.5351 27.8299 48.2337 24.7154 48.2337 21.5003ZM54.1614 17.4816C53.86 17.783 53.4581 17.9839 53.1567 18.1849C53.0562 19.29 53.0562 20.3952 53.0562 21.5003C53.0562 25.0168 53.5586 28.4327 54.3623 31.5473C54.7642 31.7482 55.1661 31.9491 55.4675 32.1501C54.4628 28.7341 53.9604 25.1172 53.9604 21.5003C53.9604 20.0938 54.0609 18.7877 54.1614 17.4816Z" fill="#3E4347"/>
<path d="M23.8194 18.0845C20.9058 21.0985 20.303 27.83 25.226 28.2319C31.1536 28.7342 34.0672 33.2553 36.9808 30.2412C39.8944 27.2272 38.8898 22.6056 35.4738 19.0892C32.0579 15.4723 26.8335 15.0704 23.8194 18.0845Z" fill="#E07E1E"/>
<path d="M23.9202 18.0844C22.4131 19.5915 21.7098 21.8018 21.8103 23.8112C21.9108 24.8159 22.2122 25.8205 22.9155 26.5238C23.5183 27.2271 24.4225 27.5285 25.4272 27.629C27.6375 27.7295 29.7474 28.5332 31.6563 29.4374C32.661 29.8393 33.5652 30.2412 34.4694 30.4421C35.3736 30.5426 35.9765 30.2412 36.5793 29.5379C37.1821 28.8346 37.584 28.0309 37.7849 27.1266C37.9858 26.2224 37.8854 25.3182 37.584 24.414C37.0816 22.6055 35.876 20.8976 34.5699 19.491C33.2638 18.1849 31.5558 17.0797 29.6469 16.5774C28.6422 16.3764 27.6375 16.3764 26.6328 16.5774C25.6281 16.8788 24.6234 17.3811 23.9202 18.0844ZM23.8197 17.984C25.3267 16.3764 27.4366 15.5727 29.7474 15.5727C31.9577 15.5727 34.2685 16.4769 35.9765 18.0844C37.584 19.5915 38.9905 21.6008 39.5933 23.9116C39.8948 25.1173 39.8948 26.3229 39.5933 27.5285C39.2919 28.7341 38.6891 29.8393 37.7849 30.6431C37.3264 31.1129 36.7803 31.4884 36.1774 31.7482C35.5746 31.9492 34.8713 32.0496 34.2685 31.9492C33.0629 31.7482 32.0582 31.1454 31.1539 30.7435C29.245 29.8393 27.4366 29.0356 25.4272 28.7341C24.9249 28.6337 24.322 28.5332 23.8197 28.2318C23.3174 27.9304 22.815 27.5285 22.5136 27.1266C21.8103 26.122 21.6094 25.0168 21.6094 23.9116C21.6094 22.8065 21.9108 21.7013 22.3127 20.6966C22.5136 19.6919 23.0159 18.7877 23.8197 17.984Z" fill="#3E4347"/>
<path d="M8.84955 29.0356C12.1233 29.0356 14.7772 26.2017 14.7772 22.706C14.7772 19.2103 12.1233 16.3765 8.84955 16.3765C5.57579 16.3765 2.92188 19.2103 2.92188 22.706C2.92188 26.2017 5.57579 29.0356 8.84955 29.0356Z" fill="#FCFCFA"/>
<path d="M8.8497 27.0262C11.1247 27.0262 12.9689 25.092 12.9689 22.706C12.9689 20.3201 11.1247 18.3859 8.8497 18.3859C6.57471 18.3859 4.73047 20.3201 4.73047 22.706C4.73047 25.092 6.57471 27.0262 8.8497 27.0262Z" fill="#29251C"/>
</svg>
