<svg width="360" height="203" viewBox="0 0 360 203" fill="none" xmlns="http://www.w3.org/2000/svg">
<mask id="mask0_6201_682" style="mask-type:luminance" maskUnits="userSpaceOnUse" x="0" y="0" width="360" height="203">
<path d="M0 0H360V203H0V0Z" fill="white"/>
</mask>
<g mask="url(#mask0_6201_682)">
<path d="M250.141 202.891C249.234 202.891 248.276 202.724 247.443 202.583C246.922 202.495 246.406 202.396 245.88 202.292C244.318 201.984 242.687 201.672 241.047 201.672C240.74 201.672 240.437 201.677 240.13 201.698C240.042 201.708 239.953 201.708 239.87 201.708C238.818 201.708 237.802 201.214 237.01 200.307C236.63 199.875 236.297 199.406 235.979 198.964C235.01 197.589 233.974 196.943 232.713 196.943C232.234 196.943 231.729 197.031 231.177 197.219C229.838 197.661 228.62 197.88 227.432 197.88C226.385 197.88 225.396 197.714 224.385 197.375C223.99 197.24 223.557 197.182 223.068 197.182C222.552 197.182 222.031 197.25 221.521 197.318C221.042 197.375 220.557 197.443 220.073 197.453C219.005 197.469 217.948 197.474 216.891 197.474C212.13 197.474 207.516 197.339 203.635 197.198C201.557 197.125 199.474 197.078 197.385 197.031C194.219 196.958 190.958 196.885 187.745 196.724C185.161 196.594 182.583 196.484 180 196.38C176.417 196.234 172.719 196.083 169.083 195.859C161.13 195.37 153.109 195.281 144.911 195.224C141.588 195.198 138.26 195.177 134.932 195.177C132.599 195.177 130.255 195.187 127.922 195.208C121.354 195.276 114.677 195.411 108.224 195.542C104.953 195.609 101.687 195.677 98.4166 195.74C88.3749 195.917 78.2812 196.328 69.7239 196.714L65.3281 196.906C60.5833 197.115 55.6718 197.323 50.8437 197.578C48.7916 197.682 46.7343 197.797 44.6822 197.917C38.9739 198.229 33.0728 198.552 27.2708 198.76C24.4843 198.859 21.5156 198.927 17.651 198.969H17.5103C16.9843 198.979 16.4478 198.984 15.9426 199.089C13.8958 199.531 11.7916 199.568 9.75514 199.604C8.33326 199.63 6.8593 199.656 5.4218 199.818C5.19784 199.839 4.97389 199.854 4.74993 199.854C3.90097 199.854 3.02076 199.698 2.16659 199.547L1.88014 199.495C1.11451 199.359 0.692635 199.141 0.578053 198.823C0.468678 198.505 0.64576 198.073 1.13014 197.495L3.08847 195.161C7.78639 189.547 12.6458 183.734 17.6874 178.26C20.2551 175.474 22.6666 172.453 24.9999 169.536L25.0468 169.484L24.9947 169.437C23.9843 168.552 22.9114 168.13 21.6145 168.13C21.0364 168.13 20.4114 168.214 19.6353 168.385C18.2395 168.693 16.7551 168.849 15.0833 168.849C14.5989 168.849 14.1145 168.833 13.6353 168.812C9.25514 168.604 6.04159 165.792 5.64055 161.818C5.57805 161.219 5.57805 160.802 5.77076 160.583C5.9218 160.422 6.20305 160.344 6.70305 160.344C6.78639 160.344 6.86972 160.344 6.95826 160.354C7.78639 160.38 8.63534 160.479 9.45305 160.578C9.93743 160.635 10.4218 160.687 10.9062 160.734C11.3853 160.776 11.8593 160.792 12.3333 160.792C16.3072 160.792 20.0781 159.312 23.8593 156.255C25.8958 154.609 27.7083 152.448 29.5728 149.437L29.7031 149.24C29.9635 148.839 30.2603 148.391 30.1406 147.687L30.1353 147.63H30.0676C29.6041 147.635 29.151 147.635 28.6874 147.635C26.9531 147.635 25.5572 147.578 24.2812 147.458C21.4478 147.182 19.3593 146.401 17.6978 144.995C16.1145 143.656 15.2656 142.094 15.1718 140.349C15.0781 138.391 15.9947 136.25 17.6978 134.495C17.8958 134.286 18.1562 134.156 18.4843 134.104C18.5364 134.099 18.5989 134.089 18.6406 134.089C18.8541 134.089 19.026 134.167 19.1301 134.307C19.2499 134.464 19.2708 134.682 19.2031 134.927C19.0989 135.286 18.8385 135.526 18.5676 135.781C18.4739 135.87 18.3749 135.958 18.2864 136.057C17.4114 136.995 16.8697 138.167 16.6197 139.646C16.4791 140.469 16.5364 140.995 16.8176 141.344C17.0937 141.698 17.5885 141.875 18.4426 141.937C18.8385 141.969 19.2343 141.974 19.6301 141.974C22.052 141.974 24.5208 141.464 26.9791 140.464C30.3645 139.078 33.6562 136.901 37.0416 133.823C40.8333 130.365 43.6926 126.089 46.4583 121.953L46.7343 121.542C48.4635 118.953 50.2551 116.276 52.5989 114.099C56.4947 110.479 59.9322 108.646 63.7291 108.167C65.5833 107.927 67.0728 107.823 68.427 107.823C72.0208 107.823 74.8645 108.609 77.3697 110.297C78.677 111.182 79.8749 112.323 81.0364 113.797C81.0989 113.88 81.1614 113.964 81.2187 114.052C81.4166 114.328 81.6145 114.615 81.9583 114.792C82.5624 114.708 82.6458 114.286 82.7187 113.911C82.7447 113.797 82.7656 113.687 82.7968 113.589C84.3853 109.042 87.526 106.422 92.3801 105.594C94.1041 105.302 95.651 105.161 97.1145 105.161C97.4791 105.161 97.8437 105.167 98.2083 105.187C98.3437 105.198 98.4791 105.198 98.6041 105.198C99.151 105.198 99.6926 105.146 100.229 105.099C100.687 105.052 101.141 105.016 101.599 105C102.177 104.99 102.453 104.62 102.719 104.26L102.823 104.125C103.927 102.667 105.042 101.193 106.104 99.7135C109.469 95.0156 113.312 89.3593 116.297 83.0729L116.505 82.625C116.958 81.6406 117.437 80.6354 118.125 79.7812C118.49 79.3333 118.536 78.8229 118.588 78.3385C118.984 74.2135 119.979 70.0885 121.562 66.0573C122.37 64.0052 123.615 62.1354 124.818 60.3177C125.062 59.9531 125.307 59.5781 125.547 59.2135C128.047 55.375 130.891 51.4635 134.755 46.5104C138.588 41.6041 143.229 37.2708 148.948 33.2916C153.891 29.8385 159.109 26.7916 164.437 24.2448C165.609 23.6823 166.724 22.9739 167.807 22.2812C168.458 21.8698 169.13 21.4479 169.802 21.0573C172.859 19.2916 175.547 16.9583 178.135 14.6979C179.276 13.7031 180.453 12.677 181.656 11.7135C183.24 10.4427 184.937 9.276 186.578 8.15621C187.594 7.45829 188.646 6.74996 189.656 6.00517C193.969 2.86454 199.286 1.10934 205.906 0.619751C208.292 0.447876 210.26 0.369751 212.099 0.369751C217.953 0.369751 222.661 1.23433 226.901 3.0885C230.443 4.64579 233.391 6.82808 235.906 9.77079C236.87 10.901 237.823 12.0677 238.75 13.1979C240.807 15.7239 242.943 18.3333 245.328 20.651C246.838 22.1093 248.427 23.5416 249.974 24.9166C250.948 25.7916 251.927 26.6614 252.891 27.5468C256.557 30.9323 259.807 34.8125 262.948 38.5677C263.557 39.302 264.177 40.0312 264.792 40.7656C267.437 43.901 270.042 47.1562 272.562 50.2968C273.87 51.927 275.177 53.5468 276.49 55.1718C279.057 58.3385 282.427 60.9114 286.234 62.6145C293.552 65.8958 299.911 70.8854 305.672 77.8645L306.734 79.151C308.646 81.4479 310.625 83.8281 312.26 86.3854C313.677 88.6041 315.286 90.7395 316.838 92.802C318.833 95.4427 320.891 98.1666 322.562 101.104C323.104 102.062 323.646 103.021 324.182 103.979C326.088 107.365 328.062 110.865 330.141 114.234C332.797 118.542 335.865 122.51 339.25 126.052C343.208 130.172 347.453 134.13 351.557 137.948L351.641 138.031C354.542 140.734 356.443 143.443 357.62 146.552C358.234 148.151 358.25 149.776 357.672 151.51C356.479 155.13 354.078 157.859 350.338 159.859C347.932 161.146 345.677 162.979 343.469 165.469C342.906 166.099 342.74 166.562 343.26 167.464L343.37 167.661C344.052 168.844 344.745 170.062 345.656 171.099C346.901 172.521 347.958 174.115 348.99 175.656C349.234 176.031 349.49 176.401 349.745 176.776C352.062 180.203 354.245 183.651 356.802 187.766C357.75 189.292 358.802 191.125 359.443 193.172C359.609 193.703 359.682 194.031 359.562 194.219C359.448 194.406 359.13 194.495 358.609 194.589C357.463 194.786 356.25 194.984 355.057 195C348.469 195.057 341.781 195.333 335.307 195.604C331.312 195.771 327.182 195.943 323.115 196.062C315.578 196.276 306.625 196.516 297.401 196.615C294.427 196.646 291.448 196.646 288.474 196.646H286.406C283.391 196.646 280.375 196.646 277.359 196.682C274.443 196.714 271.854 196.906 269.443 197.286C267.578 197.578 265.844 198.193 264.141 199.156C260.359 201.302 255.932 202.516 250.62 202.859C250.458 202.891 250.302 202.891 250.141 202.891ZM198.901 50.1666C196.917 50.1666 195.437 51.4375 194.094 52.7395C193.219 53.5885 192.391 54.5208 191.588 55.4166C190.818 56.2864 190.026 57.177 189.182 58C186.198 60.9323 183.208 63.6979 179.417 65.3281C178.531 65.7135 178.193 66.4531 177.901 67.2343C177.469 68.3958 177.047 69.5625 176.615 70.7291C175.62 73.4323 174.588 76.2187 173.526 78.9479C171.474 84.2083 168.078 88.1927 163.437 90.7916C161.958 91.6198 160.474 92.4895 159.031 93.3437C155.667 95.3229 152.182 97.375 148.536 98.9635C148.24 99.0937 148.068 99.3385 147.901 99.5781C147.849 99.6562 147.797 99.7291 147.74 99.802C145.042 103.177 142.713 106.87 140.469 110.437C140.088 111.036 140.005 111.479 140.708 111.927C141.693 112.562 142.385 113.542 142.833 114.927C143.323 116.432 143.823 118.042 144.12 119.672C144.542 122.01 144.865 124.5 143.74 126.88C142.932 128.583 142.552 130.271 142.573 132.026C142.588 132.969 142.208 133.807 141.588 134.854L141.516 134.974L153.557 134.182L153.448 133.677C153.391 133.453 153.365 133.297 153.318 133.141C153.276 132.99 153.229 132.849 153.182 132.708C153.13 132.552 153.078 132.401 153.042 132.245C151.974 128.359 152.625 124.766 154.984 121.547C156.026 120.109 157.713 119.219 159.37 119.219C160.927 119.219 162.338 120.005 163.323 121.437C163.75 122.047 164.01 122.745 164.177 123.687C164.323 124.542 164.51 125.234 164.958 125.828C165.713 126.828 166.479 127.818 167.266 128.812L168.271 130.104L169.104 129.505C169.635 129.125 170.146 128.755 170.667 128.401C173.219 126.62 176.151 125.526 178.984 124.474C179.641 124.224 180.297 123.979 180.948 123.729C181.76 123.417 182.687 123.266 183.865 123.266C184.37 123.266 184.885 123.292 185.396 123.318C185.708 123.333 185.948 123.385 186.141 123.479C186.516 123.651 186.693 123.969 186.693 124.458V124.531L187.917 124.479L187.906 124.396C187.865 123.984 187.802 123.583 187.75 123.172C187.63 122.281 187.505 121.359 187.469 120.453C187.396 118.547 188.276 117.432 190.172 117.068C191.062 116.885 191.937 116.729 192.781 116.729C194.281 116.729 195.391 117.255 196.286 118.37C196.349 118.443 196.458 118.443 196.573 118.453C196.609 118.453 196.651 118.453 196.682 118.458L196.729 118.464L196.76 118.427C196.812 118.359 196.854 118.286 196.901 118.214C196.99 118.062 197.073 117.922 197.193 117.844C199.927 116.156 203.01 114.635 207.172 112.932C207.37 112.849 207.552 112.812 207.724 112.812C208.146 112.812 208.458 113.052 208.646 113.5C208.906 114.125 209.328 114.448 209.906 114.448C210.099 114.448 210.323 114.411 210.562 114.339C211.635 114.005 212.771 113.896 213.865 113.792C214.865 113.693 215.901 113.594 216.896 113.328C217.099 113.276 217.297 113.245 217.5 113.245C217.807 113.245 218.083 113.302 218.328 113.432C218.771 113.656 219.224 113.687 219.641 113.687C219.755 113.687 220.213 113.677 220.328 113.677H220.901C221.5 113.677 222.088 113.672 222.687 113.661C223.276 113.656 223.87 113.651 224.463 113.651C225.573 113.651 227.042 113.677 228.51 113.896C235.922 114.995 242.375 116.401 248.255 118.198C254.099 119.984 258.724 121.802 262.797 123.911C263.776 124.411 264.604 125.125 265.406 125.802C266.057 126.354 266.734 126.927 267.474 127.391C269.719 128.771 271.75 130.396 273.505 132.208C274.062 132.792 274.661 133.036 275.495 133.036C276.021 133.031 276.479 133.031 276.937 133.031C279.161 133.031 281.005 133.125 282.724 133.328C284.271 133.505 285.807 133.531 286.974 133.531C287.588 133.531 288.219 133.521 288.838 133.516C289.458 133.505 290.083 133.5 290.703 133.5C291.948 133.5 292.948 133.531 293.865 133.599C293.917 133.604 293.969 133.604 294.021 133.604C294.588 133.604 294.963 133.359 295.281 132.766C295.865 131.703 296.453 130.656 297.047 129.604C297.599 128.625 298.151 127.646 298.687 126.656C299.224 125.677 299.385 124.979 299.213 124.391C299.042 123.807 298.557 123.318 297.625 122.802C295.776 121.786 293.932 120.448 291.838 118.594C286.396 113.792 279.995 109.781 271.062 105.583C262.87 101.74 255.172 97.4323 248.172 92.7864C240.891 87.9479 234.365 82.3541 228.932 77.5052C223.531 72.6875 218.297 67.2135 213.391 61.2395C212.745 60.4531 212.115 59.6614 211.484 58.8645C210.088 57.1145 208.656 55.3073 207.104 53.6562L207.031 53.5729C205.479 51.9114 203.875 50.1979 201.437 50.1979C201.073 50.1979 200.682 50.2343 200.297 50.3177C200.271 50.3229 200.25 50.3229 200.219 50.3229C200.135 50.3229 200.047 50.302 199.969 50.2864C199.599 50.2031 199.25 50.1666 198.901 50.1666Z" fill="#FDFBEA"/>
</g>
<path d="M210.256 181.88C210.303 181.969 210.344 182.052 210.412 182.104C212.344 183.766 213.86 186.375 217.12 185.036C217.532 184.865 217.771 185.302 217.969 185.635C218.224 186.036 218.068 186.344 217.756 186.62C217.12 187.198 216.224 187.099 215.433 187.469C215.532 187.729 215.573 187.984 215.704 188.182C217.761 191.594 220.792 193.901 224.308 195.604C225.75 196.307 227.334 196.422 228.933 196.036C229.787 195.828 230.657 195.656 231.511 195.469C234.011 194.922 235.865 195.625 237.094 197.87C237.928 199.396 239.125 200.115 240.74 200.094C243.292 200.047 245.75 200.526 248.209 201.094C248.761 201.224 249.344 201.328 249.896 201.281C254.761 200.854 259.5 199.99 263.776 197.422C266.594 195.729 269.193 193.75 271.766 191.698C273.214 190.542 274.625 189.427 275.235 187.583C275.323 187.307 275.584 187.063 275.808 186.859C279.042 183.906 281.204 180.234 282.875 176.245C283.36 175.089 283.651 173.839 284.146 172.677C284.599 171.625 285.151 171.557 285.855 172.552C286.355 173.26 286.657 172.995 286.974 172.542C287.183 172.245 287.24 171.839 287.355 171.484C288.235 168.797 288.344 166.031 288.235 163.24C288.204 162.542 288.026 161.729 288.568 161.24C289.599 160.323 289.412 159.24 289.292 158.099C289.089 156.141 288.391 154.292 288.032 152.365C287.667 150.417 288.151 149.714 290.021 149.214C290.881 148.984 291.875 149.089 292.839 148.307C288.98 147.979 285.579 146.948 282.271 145.526C278.891 144.068 276.511 141.63 275.334 138.182C274.573 135.953 273.167 134.224 271.61 132.62C268.573 129.484 264.964 127.073 261.193 124.911C258.292 123.25 255.068 122.333 251.964 121.151C247.256 119.365 242.339 118.255 237.422 117.188C231.745 115.953 226.042 114.958 220.193 115.375C219.693 115.411 219.125 115.495 218.693 115.318C217.693 114.896 216.704 115.047 215.719 115.182C213.787 115.443 211.855 115.75 209.933 116.109C209.032 116.281 208.198 116.182 207.75 115.411C207.224 114.516 206.724 114.755 206.042 115.094C204.12 116.036 202.162 116.901 200.256 117.875C199.428 118.302 198.579 118.734 197.907 119.526C199.558 120.854 200.667 122.656 202.167 124.089C203.146 125.026 204.167 125.76 205.792 125.51C207.855 125.198 209.584 126.198 210.896 127.828C211.099 128.078 211.276 128.354 211.089 128.682C210.933 128.969 210.735 129.229 210.381 129.25C209.964 129.281 209.709 128.969 209.443 128.698C208.24 127.516 206.86 126.927 205.151 127.396C204.922 127.464 204.615 127.531 204.438 127.432C202.886 126.609 201.183 125.938 200.146 124.432C198.719 122.365 196.797 120.865 194.855 119.349C193.318 118.146 191.735 118.526 190.12 118.745C190.12 119.333 190.349 119.557 190.573 119.776C190.974 120.172 191.526 120.531 191.11 121.198C190.657 121.922 190.125 121.354 189.625 121.224C189.542 121.203 189.422 121.302 189.313 121.354C189.073 123.448 189.698 125.339 190.735 127.12C191.683 128.755 192.553 130.469 193.698 131.958C194.714 133.276 195.266 135.193 197.339 135.453C197.474 135.469 197.589 135.719 197.698 135.88C198.662 137.245 199.86 138.339 201.407 139.01C202.032 139.292 202.318 139.781 202.011 140.375C201.698 140.99 201.131 140.651 200.678 140.479C198.282 139.573 196.813 137.365 194.646 136.13C192.079 132.391 189.25 128.802 187.829 124.396C187.469 124.411 187.11 124.427 186.761 124.443C186.469 124.938 186.058 125.016 185.636 124.995C185.381 124.979 185.12 124.938 184.881 124.911C183.464 124.802 182.099 124.995 180.782 125.469C178.891 126.146 177.021 126.917 175.167 127.682C173.407 128.406 171.86 129.505 170.323 130.604C169.526 131.172 168.719 131.849 168.756 133.042C168.771 133.432 168.495 133.76 168.032 133.76C167.599 133.76 167.344 133.484 167.188 133.12C167.115 132.948 167.032 132.734 167.068 132.573C167.292 131.583 166.714 130.875 166.224 130.151C165.704 129.365 165.131 128.615 164.526 127.891C163.532 126.703 162.808 125.422 162.584 123.859C162.412 122.661 161.688 121.839 160.704 121.271C160.375 121.542 160.454 121.792 160.49 122.026C160.584 122.563 160.61 123.036 159.875 123.141C159.198 123.24 158.803 122.984 158.641 122.302C158.542 121.911 158.745 121.427 158.287 121.099C157.474 121.255 156.907 121.542 156.782 122.505C156.662 123.432 156.37 124.339 156.422 125.302C156.459 125.99 156.219 126.5 155.417 126.005C154.797 125.63 154.563 125.781 154.401 126.474C154.063 127.854 153.985 129.198 154.287 130.589C154.745 132.656 155.615 134.531 156.823 136.229C157.646 137.391 158.23 138.75 159.386 139.656C160.084 139.177 160.178 138.427 160.615 137.906C160.855 137.62 161.021 137.26 161.391 137.099C161.86 136.896 162.25 137.01 162.579 137.375C162.922 137.755 162.73 138.094 162.428 138.349C160.938 139.62 160.834 141.578 160.204 143.214C159.339 145.484 158.839 147.938 158.969 150.432C160.323 149.859 161.474 148.984 162.428 147.885C164.178 145.87 166.422 145.146 168.995 145.089C171.224 145.031 173.407 145.297 175.532 145.917C178.964 146.911 181.792 148.776 183.818 151.786C184.313 152.516 184.912 153.193 185.829 153.427C185.922 153.203 186.006 152.953 186.136 152.745C186.365 152.38 186.724 152.297 187.11 152.448C187.464 152.589 187.454 152.932 187.485 153.24C187.589 154.333 187.245 155.339 186.912 156.344C187.12 156.927 187.334 157.51 187.412 158.13C187.433 158.333 187.448 158.542 187.433 158.76C187.782 159.036 188.021 159.349 188.073 159.719C188.11 159.943 188.079 160.182 187.969 160.448C188.537 161.536 188.662 162.745 188.761 163.922C189.079 167.922 190.011 171.87 189.714 175.917C190.287 175.813 190.818 175.609 191.329 175.365C191.834 175.115 192.329 174.833 192.829 174.563C193.563 174.161 194.11 174.219 194.709 174.734C195.667 175.573 196.823 176.109 197.943 176.667C199.745 177.557 201.584 178.276 203.688 178.276C205.448 178.276 206.464 177.427 206.188 175.208C206.053 174.083 205.792 172.969 205.448 171.896C205.032 170.594 204.084 169.24 206.329 168.682C206.5 168.641 206.615 168.286 206.724 168.063C207.099 167.339 207.422 166.568 207.839 165.87C208.948 164.042 208.584 161.521 210.537 160.073C210.667 159.979 210.683 159.729 210.75 159.552C211.136 158.552 211.532 157.557 211.928 156.552C213.547 152.448 215.823 148.766 218.933 145.625C219.375 145.177 219.829 144.74 220.375 144.406C222.49 143.089 224.678 141.865 226.672 140.339C228.37 139.026 230.079 137.734 231.849 136.516C233.391 135.453 233.985 135.734 234.506 137.563C234.719 138.323 234.573 139.172 234.99 139.938C235.625 139.797 236.178 139.677 236.73 139.542C237.443 139.365 238.115 139.484 238.714 139.901C239.855 140.719 241.12 141.286 242.386 141.849C243.355 142.281 243.662 142.901 243.459 143.865C243.115 143.813 242.782 143.865 242.438 143.792C242.308 143.76 242.172 143.724 242.047 143.641C240.855 142.938 239.563 142.406 238.386 141.682C237.667 141.24 237.026 141.083 236.256 141.401C235.907 141.542 235.547 141.667 235.178 141.75C233.891 142.047 233.438 141.75 233.198 140.484C233.047 139.724 233.073 138.906 232.667 138.078C232.162 138.385 231.766 138.578 231.422 138.823C228.469 140.964 225.724 143.417 222.412 145.042C222.245 145.125 222.11 145.266 221.969 145.38C219.901 147.063 218.204 149.042 216.776 151.307C212.808 157.667 210.047 164.359 210.48 172.068C210.667 175.349 211.417 178.417 213.355 181.13C213.631 181.521 214.183 181.906 213.537 182.38C212.948 182.813 212.365 182.755 211.896 182.125C211.563 181.672 211.198 181.234 210.844 180.786C210.605 181.047 210.36 181.313 210.12 181.573C210.172 181.698 210.209 181.797 210.256 181.88ZM195.459 165.589C194.849 165.75 194.334 165.641 193.959 165.115C192.917 163.667 192.407 161.974 192 160.276C191.818 159.552 192.235 158.885 192.907 158.573C193.662 158.219 194.063 158.854 194.386 159.38C195.313 160.885 196.042 162.469 196.23 164.151C196.198 164.823 196.178 165.396 195.459 165.589ZM195.599 155.01C193.162 154.974 191.594 153.359 191.558 150.948C191.511 147.979 193.771 146.948 196.766 146.672C198.631 146.5 200.026 148.375 199.98 150.578C199.928 153.245 198.146 155.047 195.599 155.01ZM243.464 143.948L243.5 143.911C243.5 143.932 243.5 143.948 243.495 143.974C244.49 144.557 245.428 144.036 246.339 143.755C247.657 143.344 248.928 142.766 250.224 142.302C250.693 142.141 251.204 141.995 251.688 141.99C252.756 141.969 253.381 142.844 253.115 143.891C252.875 144.849 252.276 145.573 251.563 146.198C251.323 146.411 250.995 146.573 251.011 146.911C251.115 148.88 251.021 149.516 250.375 150.948C250.271 151.182 250.141 151.401 250.053 151.641C249.667 152.755 249.844 153.802 250.672 154.625C251.443 155.385 252.344 155.474 253.443 155.089C255.896 154.219 257.329 152.401 258.375 150.172C258.745 149.38 259.006 148.526 259.292 147.698C259.454 147.208 259.756 146.927 260.266 147.021C260.896 147.135 261.037 147.594 260.933 148.161C260.282 151.786 257.454 155.724 253.349 156.807C251.792 157.219 250.313 156.839 249.276 155.49C248.094 153.958 247.948 152.25 248.657 150.479C248.891 149.901 249.271 149.38 249.589 148.828C249.537 148.734 249.511 148.599 249.428 148.557C247.584 147.542 247.553 146.995 249.292 145.865C250.011 145.401 250.891 145.109 251.084 144.083C250.365 143.76 249.839 144.219 249.271 144.438C247.98 144.927 246.709 145.474 245.329 145.724C243.672 146.016 243.287 145.672 243.474 143.979C243.49 143.964 243.48 143.958 243.464 143.948ZM26.0734 164.667C24.3755 165.698 22.4692 166.172 20.589 166.672C17.7557 167.427 14.8755 167.63 11.9796 167.099C9.80774 166.703 8.37024 165.396 7.61504 163.339C7.24524 162.313 7.54212 161.885 8.63587 161.984C9.77129 162.089 10.8963 162.172 12.0317 162.198C16.2348 162.313 19.9327 160.922 23.3494 158.573C26.8598 156.156 29.4275 152.917 31.6255 149.333C31.7609 149.125 31.8338 148.88 31.9327 148.646C32.6567 146.932 32.1723 146.109 30.3286 146.188C27.74 146.281 25.1671 146.359 22.615 145.786C21.2609 145.49 20.0265 144.995 18.9744 144.104C19.1567 143.776 19.3755 143.672 19.6359 143.656C26.313 143.411 31.8286 140.495 36.7765 136.229C41.2192 132.401 44.6827 127.807 47.7505 122.828C50.7036 118.016 54.2244 113.656 59.365 110.984C60.8755 110.198 62.5838 109.932 64.2713 109.63C66.6567 109.203 69.0734 109.214 71.4171 109.495C74.2765 109.844 76.7452 111.339 78.7348 113.5C79.6775 114.516 80.3546 115.766 81.4536 116.646C82.0421 117.12 81.6932 117.693 81.6671 118.224C81.6463 118.745 81.5473 119.297 82.2557 119.417C82.9015 119.526 83.1515 119.099 83.2817 118.557C83.5734 117.328 83.8755 116.104 84.1671 114.87C85.3755 109.745 88.5317 107.505 93.4952 106.859C97.7713 106.297 102.053 106.792 106.308 107.432C106.532 107.469 106.756 107.505 106.964 107.568C107.178 107.625 107.381 107.693 107.584 107.776C107.985 107.943 108.36 108.167 108.698 108.458C109.042 108.698 109.412 108.719 109.792 108.688C109.917 108.682 110.042 108.667 110.172 108.651C110.209 109.042 110.245 109.333 110.282 109.552C110.303 109.656 110.329 109.745 110.355 109.813C110.454 110.021 110.605 110.073 110.886 110.026C111.073 110.005 111.329 109.938 111.662 109.849C112.25 109.698 112.787 109.245 113.474 109.49C113.61 110.172 113.068 110.5 112.75 110.943C108.917 116.349 104.105 120.797 99.0682 125.042C96.1723 127.479 93.1515 129.797 91.1046 133.083C90.0421 134.802 88.8911 136.464 87.8755 138.214C87.3911 139.052 86.8442 139.01 86.1671 138.661C85.6098 138.37 85.0421 138.031 84.714 137.479C83.4536 135.349 82.3025 133.188 82.7452 130.547C82.99 129.073 82.063 128.422 80.6775 129.042C79.1827 129.708 78.1932 130.964 77.2348 132.219C74.9327 135.25 73.2088 138.63 71.5577 142.047C69.313 146.708 67.3338 151.526 64.4171 155.828C60.6046 161.438 55.615 165.276 48.5838 165.953C46.5994 166.151 44.6463 166.755 42.6984 167.234C38.1098 168.349 33.4484 168.37 28.7765 168.229C27.5369 168.193 26.2765 167.979 25.0213 167.422C25.5317 166.724 26.3494 166.667 26.938 166.24C27.365 165.932 27.8286 165.656 27.5369 165.042C27.2036 164.375 26.6046 164.354 26.0734 164.667ZM94.865 157.62C94.964 157.438 95.0838 157.26 95.2088 157.104C95.5994 156.635 96.1046 156.281 96.5786 155.885C102.349 151.026 108.209 146.245 113.454 140.786C115.5 138.651 117.365 136.349 119.318 134.135C119.563 133.859 119.849 133.615 120.11 133.349C120.37 133.88 120.391 134.526 120.839 134.974C121.641 139.469 120.532 143.521 117.954 147.208C117.865 147.339 117.787 147.458 117.714 147.578C117.506 147.938 117.391 148.297 117.537 148.75C117.526 149.557 117.641 150.151 117.901 150.589C118.089 150.906 118.349 151.146 118.714 151.307C119.006 151.438 119.365 151.521 119.787 151.563C121.547 151.75 123.308 151.682 125.042 151.229C125.49 151.109 125.875 150.948 126.084 150.5C129.532 150.271 132.287 148.542 134.803 146.359C135.881 145.417 136.881 144.385 137.98 143.333C138.339 144.104 138.032 144.688 137.829 145.245C136.464 148.948 134.063 151.599 130.188 152.745C129.344 153 128.495 153.24 127.636 153.443C127.011 153.589 126.271 153.688 126.36 154.516C126.454 155.354 127.266 155.281 127.87 155.318C128.553 155.354 129.256 155.328 129.948 155.26C133.98 154.823 136.865 156.917 139.719 159.557C138.933 159.932 138.36 159.719 137.771 159.589C135 158.984 132.24 158.349 129.391 158.177C126.787 158.021 124.24 158.245 121.745 159.036C119.641 159.703 117.511 160.276 115.303 160.51C112.266 160.823 109.276 160.75 106.485 159.292C106.073 159.073 105.651 158.922 105.297 159.365C104.98 159.771 105.068 160.219 105.36 160.583C106.344 161.813 106.365 163.24 105.797 164.526C105.12 166.073 104.157 167.542 102.584 168.385C100.24 169.635 97.7557 170.464 95.0994 170.807C94.9432 170.141 95.4848 170.021 95.7557 169.74C97.2921 168.115 98.5161 166.307 99.1359 164.12C99.5213 162.74 99.4796 161.443 99.0005 160.302C98.7609 159.729 98.4171 159.198 97.964 158.714C97.5109 158.229 96.9588 157.786 96.2921 157.406C96.0838 157.359 95.8963 157.411 95.7505 157.563C95.6827 157.651 95.5838 157.714 95.4744 157.734C95.2765 157.682 95.0682 157.651 94.865 157.62Z" fill="#FDFBEA"/>
<path d="M55.1037 180.292C54.8172 180.344 54.5151 180.443 54.2235 180.51C50.3589 181.432 46.4943 182.365 42.6401 183.307C41.9006 183.484 41.1818 183.615 40.2495 183.484C40.8693 182.609 41.7287 182.297 42.4526 181.932C45.0412 180.646 47.687 179.464 50.3224 178.245C51.9995 177.464 53.7703 177.047 55.6037 176.828C56.1297 176.771 56.8953 176.932 56.8901 176.089C56.8901 175.094 56.0828 175.089 55.3745 175.13C53.786 175.224 52.2547 175.62 50.786 176.203C46.6141 177.854 42.5568 179.745 38.7131 182.078C38.2808 182.344 37.8641 182.573 37.562 183.031C36.8849 184.078 36.5776 184.151 35.4839 183.651C35.0933 183.474 34.5933 183.359 34.6037 182.797C34.6089 182.344 35.0412 182.26 35.3537 182.057C38.4578 180.031 41.5412 177.958 44.7651 176.104C46.8589 174.901 49.0256 173.922 51.4422 173.578C51.7495 173.531 52.0672 173.464 52.3381 173.328C52.6193 173.182 52.8172 172.891 52.7339 172.542C52.6714 172.292 52.4631 172.125 52.2183 172.036C51.7235 171.854 51.2183 171.922 50.7183 171.984C48.937 172.193 47.3172 172.901 45.7183 173.672C44.4735 174.271 43.2443 174.906 42.0099 175.526C41.9422 175.448 41.8745 175.365 41.812 175.281C43.3224 173.495 45.3328 172.469 47.4787 171.667C51.2131 170.276 55.0933 169.38 58.9058 168.266C65.3068 166.396 70.7964 163.141 75.1453 158.005C76.9839 155.833 78.7339 153.599 80.5985 151.458C83.3172 148.354 85.6766 145.021 87.8381 141.531C89.2391 139.281 90.6349 137.031 92.0151 134.766C93.7183 131.969 96.0881 129.807 98.5828 127.755C103.567 123.661 108.401 119.422 112.416 114.323C116.26 109.438 119.598 104.229 122.244 98.6094C123.838 95.2135 125.598 91.974 128.119 89.1771C129.562 87.5729 131.067 86.0573 132.911 84.9167C133.307 84.6771 133.734 84.4271 133.567 83.901C133.364 83.2656 132.776 83.349 132.291 83.4688C131.395 83.6823 130.739 84.2969 130.104 84.9167C128.713 86.2865 127.213 87.5573 125.989 89.099C125.687 89.474 125.427 89.9688 124.807 90.0208C124.453 89.6406 124.578 89.2656 124.822 88.875C126.963 85.4896 129.671 82.7031 133.479 81.2604C137.89 79.5781 142.432 78.7031 147.197 79.2396C149.88 79.5469 152.01 81.0052 154.213 82.2917C155.302 82.9271 155.718 84.1094 155.666 85.4115C155.588 87.4792 154.661 89.1823 153.38 90.7083C151.223 93.276 149.036 95.8021 146.864 98.3594C143.916 101.844 141.515 105.714 139.088 109.562C136.104 114.307 132.458 118.453 128.203 122.094C125.322 124.562 122.833 127.432 120.302 130.26C117.145 133.797 114.213 137.531 110.869 140.896C106.687 145.115 102.046 148.833 97.5308 152.688C92.7235 156.776 87.9058 160.87 82.9058 164.734C81.2495 166.016 80.312 167.969 79.0776 169.641C76.6662 172.927 73.6766 175.438 69.911 177.031C66.6766 178.401 63.2964 179.094 59.8641 179.625C58.8276 179.786 57.687 179.755 56.9943 180.792C56.8224 180.792 56.6558 180.802 56.4839 180.802C56.0776 180.266 55.5985 180.208 55.1037 180.292ZM326.197 112.245C326.911 112.047 327.046 112.49 327.208 112.786C331.187 119.948 336.677 125.865 342.458 131.542C344.671 133.708 346.776 136.021 349.213 137.891C350.885 139.177 352.192 140.688 353.505 142.26C354.739 143.734 355.567 145.432 356.213 147.224C356.921 149.198 356.677 151.078 355.39 152.781C353.822 154.854 352.213 156.927 349.942 158.234C345.088 161.042 341.416 165.094 337.895 169.333C335.901 171.734 333.583 173.771 331 175.505C329.666 176.401 328.234 176.911 326.583 176.948C325.343 176.979 324.093 177.172 322.88 177.531C322.479 177.651 322.015 177.906 321.645 177.505C321.213 177.042 321.51 176.521 321.703 176.089C322.187 174.958 323.166 174.401 324.286 174.062C324.635 173.958 325.062 174.047 325.322 173.703C325.51 173.448 325.718 173.193 325.651 172.849C325.578 172.453 325.239 172.417 324.932 172.38C323.27 172.188 321.963 172.875 320.989 174.161C320.302 175.057 319.666 176.031 319.583 177.219C319.541 177.833 319.229 178.109 318.614 178.13C317.791 178.161 316.979 178.266 316.161 178.276C315.218 178.281 314.89 177.833 315.25 176.932C315.765 175.677 316.614 174.661 317.807 173.99C318.687 173.495 319.609 173.083 320.51 172.635C320.791 172.5 321.098 172.401 321.354 172.224C321.671 172 321.927 171.667 321.776 171.255C321.63 170.844 321.239 170.703 320.843 170.802C319.994 171.016 319.161 171.297 318.317 171.547C318.218 171.438 318.13 171.318 318.031 171.203C318.057 171.062 318.067 170.938 318.067 170.818C318.057 170 317.406 169.755 316.442 169.708C317.098 168.849 317.843 168.198 318.651 168.161C319.718 168.115 320.223 167.51 320.786 166.844C324.963 161.891 328.036 156.38 329.364 149.979C329.703 148.365 329.864 146.724 329.583 145.078C329.343 143.688 328.791 142.51 327.822 141.406C324.062 137.141 319.994 133.193 315.869 129.286C314.937 128.406 313.906 127.516 313.307 126.198C319.302 123.042 324.234 118.906 326.197 112.245ZM339.187 133.521C340.437 135.427 341.937 137.135 343.572 138.729C343.661 138.818 343.76 138.901 343.869 138.953C344.223 139.125 344.604 139.276 344.906 138.938C345.14 138.682 345.078 138.349 344.906 138.057C344.781 137.839 344.625 137.635 344.468 137.443C343.291 135.958 341.901 134.667 340.828 133.094C340.552 132.698 340.177 132.312 339.687 132.25C339.057 132.229 338.781 132.901 339.187 133.521ZM151.005 42.0729C154.453 46.6667 158.062 51.1042 162.541 54.776C166.854 58.3073 171.5 61.2812 176.51 63.724C177.307 64.1094 178.067 64.1875 178.864 63.8021C182.864 61.9062 186.005 58.8906 189.093 55.8177C189.552 55.3594 189.489 55.0156 188.901 54.6354C188.052 54.0885 187.432 53.2656 186.791 52.4792C182.885 47.7396 179.609 42.5625 176.395 37.349C174.703 34.6094 173.036 31.8594 171.822 28.8594C171.234 27.401 170.666 25.9271 170.093 24.4583C169.958 24.125 169.963 23.6823 169.359 23.625C169.098 23.7552 168.765 23.9219 168.437 24.099C166.557 25.1354 164.703 26.2188 162.786 27.1823C158.453 29.3802 154.281 31.849 150.276 34.6094C148.421 35.8802 148.432 35.9583 149.072 38.1927C149.473 39.6302 150.14 40.9167 151.005 42.0729ZM290.395 152.698C290.734 152.193 291.171 151.802 291.812 152.057C293.239 152.62 294.552 152.109 295.848 151.651C298.296 150.792 300.369 149.302 301.88 147.25C305.604 142.177 310.406 138.526 315.979 135.776C316.791 135.37 317.63 134.953 318.307 134.172C315.703 131.396 313.125 128.818 310.39 126.385C308.973 125.13 307.786 123.693 306.505 122.333C304.437 120.135 302.072 118.219 299.807 116.208C297.875 114.484 295.901 112.802 293.942 111.12C293.625 110.849 293.229 110.312 292.838 110.703C291.546 111.958 289.864 112.536 288.354 113.302C288.416 113.755 288.687 113.932 288.942 114.12C292.453 116.693 295.708 119.609 299.343 122.021C299.656 122.229 299.963 122.474 300.192 122.76C300.588 123.245 301.041 123.729 301.265 124.302C301.515 124.922 300.828 125.271 300.541 125.734C300.473 125.839 300.416 125.958 300.38 126.078C299.5 129.302 297.651 132.031 295.864 134.781C293.677 138.146 291.125 141.161 287.432 143C286.526 143.448 285.697 144.062 284.791 144.62C285.13 145.089 285.531 145.109 285.869 145.234C288.619 146.26 291.5 146.521 294.395 146.656C295.828 146.724 296.255 147.458 295.583 148.729C295.244 149.37 294.687 149.807 294.005 150.016C292.984 150.328 291.947 150.583 290.906 150.839C290.01 151.057 289.671 151.135 289.64 151.531C289.619 151.771 289.708 152.13 289.859 152.708C290.036 152.708 290.218 152.708 290.395 152.698ZM120.848 134.974C122.109 134.547 122.296 134.615 122.598 135.693C123.062 137.323 122.786 138.943 122.505 140.552C122.317 141.609 121.994 142.63 121.744 143.672C121.375 145.141 121.807 145.656 123.307 145.505C123.739 145.458 124.161 145.297 124.583 145.193C125.031 145.078 125.51 145.042 125.703 145.557C125.901 146.073 125.494 146.396 125.13 146.62C124.239 147.167 123.213 147.5 122.25 147.083C120.937 146.516 120.177 146.88 119.484 148.042C119.078 148.714 118.416 149.125 117.546 148.745C117.541 149.552 117.656 150.141 117.916 150.583C118.098 150.896 118.364 151.135 118.729 151.302C119.02 151.427 119.375 151.51 119.802 151.557C121.562 151.745 123.322 151.677 125.057 151.219C125.505 151.099 125.89 150.943 126.098 150.495C125.619 149.401 126.281 148.969 127.161 148.734C128.447 148.391 129.661 147.859 130.843 147.271C131.239 147.078 131.578 146.927 131.75 146.417C132.458 144.328 133.302 142.286 133.984 140.203C134.911 137.396 136.718 135.385 139.343 134.135C140.39 133.635 140.895 132.948 140.911 131.802C140.942 130.073 141.395 128.427 142.098 126.849C142.359 126.266 142.437 125.646 142.572 125.031C143.348 121.51 142.192 118.276 141.135 115.031C140.932 114.427 140.453 113.969 139.963 113.568C139.52 113.198 138.994 113.094 138.625 113.594C137.786 114.74 136.619 115.646 136.015 116.953C136.192 117.109 136.286 117.26 136.375 117.26C138.88 117.292 140.015 118.974 140.843 121C141.125 121.703 141.322 122.443 141.567 123.156C142.005 124.427 141.916 124.646 140.677 124.672C139.848 124.688 139.02 124.734 138.255 124.995C135.979 125.766 133.656 126.344 131.322 126.885C131.776 128.214 131.875 129.193 131.697 129.984C131.39 131.302 130.302 132.073 128.755 132.974C129.354 133.615 129.718 133.958 130.062 134.089C130.291 134.182 130.51 134.182 130.765 134.078C130.979 133.984 131.218 133.839 131.526 133.635C131.895 133.38 132.203 133.016 132.635 133.464C133.104 133.958 133.046 134.526 132.598 134.964C131.854 135.714 130.895 136.141 129.869 135.797C128.609 135.37 127.427 134.74 127.286 133.156C126.979 132.938 126.703 132.661 126.369 132.526C124.822 131.901 124.031 130.734 123.802 129.125C122.401 130.391 121.182 131.807 120.109 133.359C120.375 133.88 120.39 134.526 120.848 134.974ZM80.4526 131.495C79.4422 131.714 79.0568 132.682 78.5047 133.385C75.1766 137.646 73.1818 142.646 70.8797 147.474C69.5412 150.26 68.2964 153.083 66.5672 155.661C65.9162 156.635 65.2964 157.62 64.661 158.604C64.7443 158.708 64.8328 158.812 64.9162 158.917C66.7287 158.302 68.3953 157.37 69.8953 156.141C71.6558 154.698 73.1766 153.016 74.661 151.286C77.661 147.792 80.5724 144.219 83.7964 140.922C84.1818 140.516 84.6818 140.203 84.0776 139.526C82.2495 137.495 81.3381 135.026 80.8693 132.37C80.8224 132.057 80.8016 131.734 80.4526 131.495ZM111.812 105.37C114.041 102.495 115.869 99.3646 116.536 95.7656C117.161 92.3542 117.401 88.8698 117.796 85.4219C117.838 85.026 118.02 84.5521 117.406 84.1719C113.453 91.3802 108.885 98.1667 104.255 105.214C105.989 105.818 107.515 105.891 108.947 106.38C109.916 106.708 111.104 106.281 111.812 105.37ZM114.312 106.964C114.984 107.224 115.442 107.031 115.812 106.604C115.932 106.458 116.041 106.297 116.145 106.115C117.208 104.26 118.286 102.406 119.338 100.552C119.557 100.177 119.906 99.7135 119.588 99.3333C118.796 98.3802 118.994 97.1615 118.593 96.125L118.421 96.1406C118.421 96.1406 118.25 96.125 118.25 96.1146C117.973 96.4688 117.812 96.8646 117.744 97.3073C117.421 99.4531 116.484 101.365 115.333 103.141C114.552 104.344 114.088 105.51 114.354 106.932C114.348 106.932 114.312 106.964 114.312 106.964ZM122.182 70.1667C120.875 72.5677 119.494 81.8125 119.942 84.6198C121.098 79.6823 122.765 75.1042 122.182 70.1667ZM311.348 176.135C310.973 176.708 310.708 177.25 311.598 177.63C312.645 178.078 313.161 178.026 313.39 177.172C314.13 174.479 315.911 172.745 318.317 171.542C318.218 171.427 318.13 171.312 318.031 171.198C314.822 171.495 312.968 173.651 311.348 176.135ZM42.0099 175.536C41.9422 175.453 41.8745 175.37 41.812 175.292C41.5776 175.432 41.2964 175.536 41.4006 175.901L41.4318 175.875C41.5464 175.859 41.6662 175.828 41.7651 175.776C41.8641 175.724 41.9422 175.646 42.0099 175.536Z" fill="#C69A79"/>
<path d="M3.48418 197.594C3.42168 197.057 3.89043 196.74 4.19251 196.38C9.52585 190.068 14.8383 183.74 20.4477 177.661C22.3279 175.625 24.0519 173.432 25.7394 171.234C26.6404 170.062 27.6769 169.615 29.1092 169.792C32.7081 170.24 36.2758 169.948 39.854 169.5C42.6248 169.156 45.255 168.234 48.005 167.87C50.005 167.609 51.979 167.302 53.8748 166.536C56.1873 165.609 58.255 164.302 60.1873 162.776C61.2446 161.932 62.2238 161.323 63.6717 161.005C67.2029 160.208 70.3175 158.417 72.9165 155.76C75.7863 152.818 78.3123 149.583 81.0415 146.521C82.1925 145.229 83.2446 143.807 84.854 142.687C83.9217 144.406 82.9217 145.87 81.7863 147.208C78.729 150.828 75.8175 154.562 72.6248 158.078C69.104 161.953 64.7915 164.406 59.9165 165.984C55.8384 167.307 51.7029 168.443 47.5988 169.703C45.5311 170.338 43.6404 171.354 41.9425 172.703C39.3696 174.745 36.9373 176.948 34.6561 179.323C33.9998 180.01 33.3696 180.729 32.9217 181.562C32.2498 182.812 32.5154 183.891 33.6873 184.698C34.6977 185.396 35.854 185.687 37.0779 185.724C39.1769 185.781 41.2446 185.516 43.2706 185.026C46.9529 184.146 50.6144 183.208 54.2863 182.292C54.7342 182.177 55.2186 182.104 55.6196 181.917C56.0258 181.724 56.3436 181.406 56.4738 180.807C56.6404 180.807 56.8071 180.802 56.979 180.802C57.2081 181.542 57.7394 181.745 58.4581 181.641C63.3279 180.911 68.1717 180.12 72.5883 177.729C75.4008 176.203 77.9894 174.297 79.7186 171.641C82.4686 167.411 86.1248 164.213 90.1092 161.307C91.1196 160.568 92.0154 159.687 92.9946 158.896C93.5779 158.422 94.1873 157.979 94.8644 157.63C95.0675 157.661 95.2758 157.687 95.479 157.719C95.4633 158.469 95.8384 159.005 96.3592 159.531C97.9165 161.083 98.2446 162.833 97.2602 164.885C96.5102 166.448 95.5154 167.807 94.2863 169.005C93.3019 169.958 92.0936 170.474 90.7238 170.599C90.4738 170.62 90.2186 170.599 89.9738 170.63C89.3436 170.698 88.5154 170.703 88.505 171.49C88.4894 172.297 89.3227 172.25 89.9373 172.385C94.8019 173.479 99.1821 171.974 103.364 169.755C105.781 168.469 107.083 166.224 107.583 163.526C107.901 161.818 107.922 161.833 109.635 162.073C113.193 162.583 116.745 162.365 120.125 161.229C125.474 159.427 130.765 159.505 136.14 160.943C138.208 161.495 140.359 161.719 142.5 161.922C143.5 162.021 144.359 161.682 145.229 161.338C145.541 161.219 145.677 160.896 145.672 160.562C145.661 160.187 145.416 159.943 145.088 159.932C142.469 159.838 140.781 158.109 138.927 156.583C137.271 155.213 135.354 154.234 133.208 153.88C133.062 153.156 133.635 153.12 133.948 152.896C138.068 149.901 140.104 145.802 140.297 140.771C140.328 140.068 140.568 139.406 140.536 138.708C140.515 138.266 140.495 137.755 139.953 137.635C139.401 137.51 139.166 137.927 139.031 138.375C138.39 140.443 136.979 141.974 135.536 143.484C135.411 143.615 135.255 143.708 135.099 143.807C135.052 143.838 134.969 143.812 134.724 143.812C135.135 141.463 135.786 139.281 137.406 137.495C137.776 137.083 138.187 136.693 138.844 136.713C143.463 136.875 148.021 135.969 152.63 135.974C154.021 135.974 154.995 136.224 155.666 137.604C156.245 138.781 157.078 139.865 157.953 140.854C158.578 141.562 158.713 142.177 158.443 143.073C157.745 145.443 157.193 147.891 157.26 150.354C157.312 152.401 157.125 154.307 156.364 156.203C155.838 157.495 156.109 158.812 156.63 160.073C157.354 161.838 158.39 163.432 159.39 165.042C160.13 166.24 160.755 167.422 160.786 168.896C160.807 169.891 160.953 170.906 161.375 171.854C161.943 173.12 162.677 174.177 164.146 174.469C165.047 174.646 165.547 175.312 165.911 176.052C166.802 177.854 168.166 179.094 170.099 179.615C170.844 179.812 171.052 180.328 171.323 180.906C172.156 182.677 173.068 184.417 174.203 186.021C174.38 186.276 174.552 186.547 174.755 186.792C176.656 189.125 178.599 189.187 180.609 186.963C182.5 184.885 183.776 182.401 185.052 179.932C185.536 179 186.021 178.552 187.161 178.469C188.984 178.349 190.776 177.766 192.37 176.859C193.338 176.307 194.047 176.344 194.932 176.979C196.995 178.49 199.359 179.349 201.854 179.891C202.547 180.036 203.229 180.078 203.922 180.047C206.39 179.958 207.838 178.448 207.89 175.932C207.922 174.651 207.651 173.411 207.291 172.208C206.859 170.766 207.495 169.844 208.703 168.661C208.859 173.068 209.234 177.078 210.88 180.838C210.646 181.099 210.396 181.365 210.156 181.625C210.052 181.557 209.948 181.484 209.844 181.417C209.739 181.349 209.635 181.281 209.526 181.219C209.13 181.026 208.786 181.13 208.526 181.469C208.307 181.745 208.328 182.068 208.51 182.349C208.739 182.724 208.958 183.12 209.25 183.448C209.666 183.922 210.083 184.427 210.599 184.781C212.338 185.953 213.828 187.146 214.51 189.401C215.036 191.167 216.719 192.427 218.166 193.661C218.719 194.13 219.427 194.474 219.687 195.365C217.5 196.167 215.276 196.083 213.13 195.948C201.922 195.276 190.682 195.25 179.479 194.604C168.651 193.963 157.802 193.474 146.948 193.526C137.484 193.568 128.026 193.495 118.573 193.609C108.797 193.719 99.0154 193.953 89.2394 194.198C82.8748 194.365 76.5102 194.625 70.1456 194.906C64.729 195.156 59.3227 195.536 53.9061 195.807C44.4529 196.276 34.9998 196.62 25.5519 197.187C21.4061 197.443 17.2498 197.146 13.0936 197.719C10.1769 198.125 7.17689 197.87 4.20293 197.901C3.93731 197.891 3.65085 197.932 3.48418 197.594ZM340.901 168.458C340.432 168.969 339.989 169.505 339.536 170.031C337.193 172.703 334.635 175.125 331.62 177.031C330.427 177.786 329.166 178.5 327.771 178.484C326.062 178.458 324.495 178.87 322.859 179.281C319.786 180.047 316.614 180.036 313.458 179.74C312.364 179.635 311.37 179.281 310.416 178.776C307.625 177.281 307.182 174.693 309.364 172.401C310.63 171.062 312.125 169.995 313.719 169.083C316.963 167.224 320.068 165.198 322.052 161.88C322.635 160.906 323.25 159.943 323.807 158.953C325.63 155.745 327.047 152.37 327.76 148.745C328.156 146.729 328.323 144.562 326.932 142.917C324.995 140.604 322.724 138.573 320.651 136.365C319.989 135.661 319.385 135.63 318.698 136.161C317.338 137.219 315.807 137.958 314.286 138.719C313.281 139.229 312.286 139.781 311.323 140.375C308.87 141.875 307.041 144.078 305.104 146.141C303.125 148.25 301.396 150.599 298.812 152.078C296.797 153.24 294.724 154.016 292.359 153.896C291.463 153.854 290.755 153.588 290.406 152.693C290.224 152.693 290.047 152.698 289.864 152.698C290.182 153.828 290.469 154.958 290.672 156.104C290.88 157.25 291 158.406 290.969 159.588C290.958 160.156 291.068 160.818 290.719 161.25C289.911 162.245 290.015 163.344 290.062 164.49C290.166 167.359 289.588 170.141 288.75 172.859C288.276 174.385 287.578 174.984 286.323 174.661C285.146 174.354 285.114 175.005 284.854 175.755C283.203 180.463 280.75 184.667 277.047 188.078C276.823 188.286 276.583 188.536 276.474 188.812C275.609 190.958 273.901 192.365 272.198 193.786C271.734 194.177 271.182 194.484 270.937 195.021C271.265 195.432 271.594 195.359 271.89 195.333C280.578 194.641 289.286 195.088 297.979 194.948C306.802 194.797 315.63 194.693 324.458 194.401C332.463 194.13 340.463 193.833 348.469 193.542C351.114 193.443 353.765 193.396 356.406 193.224C357.635 193.151 357.75 192.865 357.198 191.802C356.437 190.344 355.713 188.865 354.823 187.49C350.661 181.088 346.443 174.719 341.963 168.542C341.578 168.031 341.265 168.062 340.901 168.458ZM189.734 175.937C189.161 176.297 188.541 176.521 187.896 176.615C187.677 176.641 187.463 176.651 187.239 176.651C185.328 176.62 184.104 177.411 183.38 179.255C182.651 181.13 181.62 182.88 180.432 184.526C179.995 185.141 179.505 185.74 178.963 186.245C177.932 187.203 177.156 187.13 176.291 185.969C174.666 183.792 173.323 181.437 172.234 178.948C172.01 178.422 171.776 177.906 171.599 177.37C171.448 176.911 171.219 176.531 170.719 176.5C170.156 176.463 170.026 176.927 169.911 177.37C169.89 177.463 169.755 177.526 169.63 177.651C168.458 177.161 167.896 176.083 167.291 175.062C166.698 174.062 166.109 173.156 164.739 173.115C164.114 173.088 163.635 172.573 163.323 171.969C162.963 171.286 162.599 170.568 162.63 169.828C162.771 166.755 161.125 164.391 159.474 162.125C157.625 159.583 157.323 157.099 158.797 154.37C159.114 153.776 159.14 153.187 159.062 152.542C158.979 151.854 159.005 151.161 158.979 150.463C160.338 149.885 161.489 149.01 162.443 147.911C164.187 145.901 166.437 145.177 169.01 145.115C171.239 145.062 173.416 145.323 175.547 145.948C178.979 146.943 181.807 148.802 183.833 151.818C184.328 152.542 184.922 153.224 185.844 153.458C185.76 154.104 185.922 155.125 184.76 154.224C184.463 153.995 184.193 153.755 183.776 153.786C183.125 153.828 182.781 154.385 183.057 154.969C183.765 156.432 185.385 157.031 186.916 156.385C187.125 156.969 187.344 157.557 187.416 158.177C187.437 158.375 187.453 158.588 187.437 158.802C187.385 158.833 187.328 158.865 187.276 158.896C186.64 159.281 185.396 159.38 185.864 160.432C186.276 161.354 187.245 160.854 187.974 160.495C188.541 161.578 188.672 162.792 188.765 163.963C189.104 167.943 190.036 171.896 189.734 175.937ZM176.849 156.693C176.838 154.318 175.047 152.432 172.75 152.385C170.583 152.344 168.458 154.651 168.474 157.031C168.489 159.49 170.25 161.318 172.562 161.286C174.979 161.25 176.864 159.229 176.849 156.693ZM182.963 166.74C182.948 165.828 181.963 162.635 181.531 162C180.984 161.198 180.052 161.198 179.547 162.021C179.271 162.463 179.239 162.953 179.328 163.469C179.557 164.781 179.901 166.042 180.505 167.224C180.828 167.859 181.14 168.521 182.031 168.281C182.864 168.057 183.005 167.396 182.963 166.74ZM291.838 137.328C292.328 136.776 292.791 136.213 293.073 135.213C287.302 135.49 281.75 134.937 276.161 134.713C276.755 138.24 278.125 140.771 280.239 142.49C281.375 143.411 282.479 144.146 283.823 142.849C283.948 142.729 284.166 142.708 284.338 142.625C287.166 141.323 289.745 139.677 291.838 137.328ZM109.776 108.703C109.901 108.698 110.026 108.682 110.156 108.667C111.604 108.25 113.01 107.734 114.318 106.953L114.349 106.922C114.094 106.932 113.849 106.953 113.604 106.984C111.896 107.229 110.364 108.12 108.687 108.458C109.026 108.713 109.401 108.729 109.776 108.703ZM118.416 96.1301L118.588 96.1145C118.922 95.1041 118.745 94.0833 118.698 92.8645C118.521 93.7603 118.354 94.4687 118.245 95.1978C118.198 95.4947 118.245 95.8072 118.25 96.1145L118.416 96.1301ZM311.458 172.891C311.495 172.833 311.536 172.776 311.573 172.724C311.458 172.948 311.229 173.073 311.021 173.224C310.781 173.391 310.573 173.583 310.599 173.958C310.713 173.891 310.812 173.818 310.89 173.724C311.13 173.479 311.271 173.167 311.458 172.891ZM310.578 173.979L310.609 174.01C310.609 173.99 310.609 173.974 310.609 173.958C310.594 173.963 310.594 173.974 310.578 173.979ZM309.625 174.99C309.562 175.182 309.505 175.401 309.422 175.641C310.125 174.984 310.338 174.49 310.562 174.016C309.943 174.047 309.786 174.422 309.625 174.99ZM310.562 174.016C310.578 174.016 310.594 174.01 310.609 174.01L310.578 173.979C310.578 173.995 310.573 174.005 310.562 174.016ZM41.3904 175.901C41.0571 175.917 40.8123 176.068 40.5779 176.297C40.505 176.375 40.4321 176.458 40.354 176.547C40.8175 176.427 41.1821 176.245 41.4217 175.875C41.4321 175.875 41.3904 175.901 41.3904 175.901ZM95.755 157.542C95.8592 157.562 95.9581 157.562 96.0519 157.542C96.1404 157.516 96.2238 157.463 96.3019 157.38C96.0883 157.338 95.9113 157.38 95.755 157.542Z" fill="#B09F97"/>
<path d="M190.526 54.1823C182.619 44.4063 175.432 34.5156 171.197 22.7604C175.864 18.5521 180.822 14.8438 185.557 10.875C186.713 9.91147 188.052 9.15626 189.276 8.26564C192.25 6.10418 195.406 4.33335 199.01 3.4323C201.151 2.90626 203.286 2.29168 205.51 2.26043C209.791 2.20314 214.083 1.81251 218.359 2.38543C225.75 3.38022 231.916 6.48439 236.369 12.6719C240.187 17.9844 244.671 22.6719 249.64 26.9063C253.546 30.2344 256.979 34.0208 260.255 37.9531C263.526 41.8906 266.817 45.8073 270.057 49.7656C271.01 50.9323 271.812 52.224 272.692 53.4583C276.177 58.3386 280.515 62.2396 285.958 64.7604C293.322 68.1771 299.437 73.1406 304.458 79.4583C309.692 86.0313 314.921 92.6094 319.531 99.6406C321.369 102.438 322.927 105.411 324.651 108.276C325.114 109.057 325.119 109.766 324.906 110.609C323.723 115.135 321.25 118.745 317.401 121.391C316.265 122.177 315.296 123.193 313.994 123.76C311.864 124.682 311.296 124.63 309.677 123.036C303.541 117.016 297.046 111.422 290.458 105.917C288.135 103.979 285.828 102.026 283.661 99.9011C281.598 97.8958 278.994 96.4531 276.697 94.6875C273.281 92.0521 269.156 90.5677 265.776 87.9167C262.536 85.3802 259.208 82.9948 255.718 80.8333C249.703 77.125 243.583 73.5938 237.489 70.0261C232.041 66.849 226.416 63.9844 221.036 60.7136C215.979 57.6458 210.88 54.5938 206.38 50.6771C205.494 49.9011 204.395 49.3386 203.479 48.5625C203.234 48.349 202.942 48.1615 202.619 48.2448C200.729 48.7344 198.765 48.4688 196.838 49.0261C194.848 49.599 193.14 50.2969 192.125 52.2344C191.817 52.8386 191.26 53.3073 190.526 54.1823ZM120.416 95.0156C120.406 95.6771 120.27 96.3698 120.713 97.0938C121.281 96.724 121.39 96.2292 121.333 95.7396C121.192 94.5 121.625 93.3698 121.927 92.2136C123.703 85.4479 128.203 81.3073 134.614 79.0261C136.88 78.2188 139.27 77.9115 141.635 77.5521C143.635 77.25 145.656 77.3854 147.671 77.5938C150.765 77.9271 153.145 79.7031 155.505 81.4636C156.817 82.4427 157.348 83.9688 157.312 85.6667C157.27 87.2396 156.692 88.6146 155.973 89.9583C155.76 90.3698 155.51 90.7552 155.25 91.125C154.468 92.25 153.536 93.2656 152.723 94.375C152.833 94.4844 152.947 94.6042 153.057 94.7188C153.234 94.6667 153.437 94.6511 153.604 94.5625C156.406 92.9844 159.25 91.4688 161.989 89.7813C163.963 88.5521 166.01 87.3646 167.645 85.6823C170 83.25 171.526 80.2865 172.734 77.1302C174.036 73.7136 174.734 70.0729 176.401 66.7865C176.796 66.0156 176.531 65.6458 175.843 65.3125C174.822 64.8281 173.802 64.3177 172.802 63.7813C166.01 60.125 160.046 55.3958 154.906 49.6511C152.89 47.4011 150.833 45.1667 149.192 42.599C148.177 41.0052 147.38 39.3073 146.869 37.5573C146.265 37.5365 146 37.8281 145.713 38.0677C144.281 39.3021 142.77 40.4583 141.453 41.8073C134.458 49 128.671 57.0938 123.963 65.9636C123.473 66.8906 123.203 67.7917 123.63 68.8542C123.937 69.6094 123.942 70.4531 123.979 71.2813C124.145 74.7448 123.296 78.0521 122.421 81.349C121.244 85.8386 120.453 90.3698 120.416 95.0156ZM213.958 58.5469C213.656 58.9427 214.01 59.1979 214.218 59.4583C215.125 60.5886 216.015 61.7396 216.984 62.8177C221.5 67.8229 226.026 72.8073 231.161 77.2292C236.13 81.5104 241.166 85.6823 246.5 89.5104C251.739 93.2656 257.255 96.5365 262.911 99.5781C270.286 103.552 278.187 106.521 285.114 111.354C285.791 111.823 286.562 111.891 287.291 111.682C288.875 111.24 290.343 110.557 291.494 109.401C291.375 108.885 291.046 108.677 290.77 108.427C289.286 107.156 287.755 105.927 286.312 104.604C280.666 99.4063 274.526 94.9063 267.734 91.3073C266.567 90.6875 265.421 89.9896 264.453 89.0677C262.192 86.9219 259.552 85.2865 256.963 83.6094C249.755 78.9427 242.25 74.7604 234.822 70.4479C228.385 66.7083 221.781 63.2344 215.494 59.2344C215.015 58.9323 214.572 58.5365 213.958 58.5469L213.968 58.5313C213.963 58.5469 213.958 58.5521 213.958 58.5469C213.958 58.5521 213.958 58.5521 213.958 58.5469ZM126.375 132.521C126.713 132.656 126.989 132.938 127.291 133.146C127.781 133.089 128.27 133.021 128.755 132.964C130.302 132.057 131.395 131.276 131.703 129.969C131.89 129.182 131.786 128.198 131.328 126.875C129.958 126.531 129.343 125.318 128.567 124.24C128.13 124.635 127.703 125.026 127.286 125.422C126.026 126.594 124.848 127.786 123.807 129.115C124.031 130.724 124.833 131.901 126.375 132.521ZM131.093 121.885C130.239 122.458 130.427 123.125 130.604 123.865C130.817 124.74 131.578 124.724 132.27 124.891C132.614 124.807 132.984 124.734 133.343 124.635C134.916 124.188 136.494 123.729 138.062 123.26C139.796 122.734 139.864 122.573 139.046 120.943C138.875 120.604 138.687 120.266 138.453 119.974C137.276 118.542 134.255 118.495 133.145 119.964C132.552 120.734 131.859 121.37 131.093 121.885ZM213.598 58.1615C213.536 58.1406 213.479 58.1354 213.411 58.125C213.411 58.2292 213.375 58.375 213.427 58.4323C213.572 58.5886 213.739 58.8125 213.958 58.5365C213.89 58.349 213.77 58.224 213.598 58.1615ZM213.958 58.5521C213.958 58.5521 213.963 58.5365 213.968 58.5313L213.984 58.5104C213.979 58.5208 213.963 58.5313 213.958 58.5469C213.958 58.5469 213.958 58.5469 213.958 58.5521ZM152.723 94.3802C152.661 94.4948 152.541 94.6511 152.5 94.7396C152.484 94.7708 152.484 94.7917 152.489 94.8073C152.692 95.0521 152.89 94.9427 153.057 94.724C152.953 94.6146 152.833 94.5 152.723 94.3802ZM196.76 146.672C193.765 146.948 191.505 147.979 191.552 150.948C191.588 153.359 193.156 154.974 195.593 155.01C198.14 155.047 199.921 153.245 199.973 150.568C200.02 148.375 198.625 146.5 196.76 146.672ZM172.75 152.38C170.583 152.333 168.458 154.646 168.473 157.026C168.489 159.484 170.25 161.307 172.562 161.281C174.979 161.25 176.859 159.229 176.843 156.688C176.838 154.307 175.036 152.422 172.75 152.38Z" fill="#AB614E"/>
<mask id="mask1_6201_682" style="mask-type:luminance" maskUnits="userSpaceOnUse" x="0" y="0" width="360" height="203">
<path d="M0 0H360V203H0V0Z" fill="white"/>
</mask>
<g mask="url(#mask1_6201_682)">
<path d="M1.87984 199.583C3.04651 199.792 4.28088 200.042 5.44234 199.911C8.94234 199.516 12.4944 199.943 15.9736 199.188C16.5257 199.068 17.0986 199.068 17.6663 199.068C20.8746 199.031 24.0725 198.969 27.2809 198.859C35.1455 198.573 43.0048 198.094 50.859 197.677C57.1507 197.349 63.4475 197.094 69.7392 196.807C79.2965 196.38 88.859 196.01 98.4319 195.839C108.265 195.656 118.099 195.396 127.937 195.297C133.599 195.245 139.26 195.266 144.916 195.307C152.974 195.365 161.031 195.453 169.083 195.943C175.297 196.323 181.531 196.484 187.744 196.807C193.036 197.078 198.338 197.099 203.63 197.286C209.114 197.474 214.588 197.615 220.073 197.542C221.505 197.521 222.963 196.995 224.359 197.458C226.677 198.24 228.916 198.057 231.198 197.302C233.229 196.63 234.651 197.203 235.922 199.016C236.25 199.479 236.583 199.943 236.958 200.37C237.802 201.328 238.911 201.87 240.145 201.781C242.645 201.594 245.026 202.24 247.432 202.656C248.494 202.839 249.562 203.026 250.619 202.948C255.39 202.641 259.979 201.625 264.172 199.24C265.833 198.297 267.541 197.677 269.453 197.375C272.078 196.964 274.713 196.802 277.354 196.771C284.031 196.703 290.718 196.771 297.395 196.703C305.968 196.615 314.531 196.406 323.104 196.151C333.755 195.839 344.385 195.188 355.041 195.078C356.234 195.073 357.427 194.88 358.609 194.667C359.765 194.469 359.843 194.281 359.494 193.156C358.89 191.214 357.911 189.443 356.843 187.734C354.547 184.031 352.229 180.344 349.786 176.74C348.484 174.813 347.244 172.828 345.698 171.057C344.75 169.969 344.041 168.698 343.312 167.438C342.812 166.568 342.968 166.135 343.51 165.521C345.5 163.286 347.734 161.323 350.369 159.927C353.911 158.042 356.474 155.391 357.739 151.531C358.291 149.849 358.323 148.198 357.687 146.521C356.411 143.156 354.349 140.458 351.682 137.974C347.484 134.063 343.276 130.151 339.297 126C335.833 122.385 332.823 118.453 330.192 114.193C327.536 109.896 325.104 105.458 322.614 101.068C319.645 95.823 315.526 91.4063 312.312 86.3386C310.375 83.3125 308.005 80.5886 305.724 77.8125C300.343 71.2969 294.047 66.0313 286.26 62.5417C282.51 60.8594 279.161 58.3386 276.541 55.1146C272.64 50.3125 268.833 45.4323 264.843 40.7084C261.005 36.1719 257.312 31.5209 252.932 27.4844C250.427 25.1719 247.828 22.9584 245.38 20.5834C241.927 17.2448 239.083 13.3542 235.968 9.70837C233.458 6.77608 230.468 4.55733 226.932 3.01046C220.161 0.0417083 213.01 0.0104578 205.906 0.531291C200.114 0.958375 194.51 2.36462 189.619 5.93233C186.968 7.85421 184.172 9.57817 181.609 11.6302C177.692 14.7917 174.166 18.4323 169.765 20.9688C167.963 22.0053 166.265 23.2553 164.395 24.1459C158.979 26.7396 153.817 29.7709 148.895 33.2032C143.536 36.9427 138.724 41.2657 134.687 46.4375C131.463 50.5573 128.338 54.7553 125.479 59.1355C124.031 61.349 122.458 63.5261 121.489 65.9948C119.937 69.9427 118.916 74.0573 118.505 78.3021C118.453 78.8073 118.406 79.2709 118.057 79.7084C117.26 80.6927 116.76 81.8698 116.213 83.0105C113.406 88.9219 109.817 94.3438 106.031 99.6407C104.963 101.13 103.849 102.589 102.744 104.047C102.453 104.432 102.208 104.875 101.583 104.896C100.453 104.927 99.3226 105.135 98.2028 105.083C96.234 104.99 94.3017 105.167 92.359 105.495C87.583 106.313 84.333 108.922 82.7132 113.536C82.5621 113.953 82.6507 114.599 81.9788 114.703C81.5465 114.484 81.3538 114.073 81.0778 113.729C80.0205 112.385 78.833 111.182 77.4007 110.214C73.1715 107.359 68.4319 107.469 63.708 108.068C59.2965 108.63 55.7392 111.047 52.5309 114.021C50.0986 116.281 48.2913 119.026 46.4736 121.766C43.6298 126.01 40.8017 130.271 36.984 133.755C33.9736 136.5 30.708 138.849 26.9371 140.391C24.2288 141.495 21.3798 142.057 18.4319 141.854C16.8694 141.75 16.4215 141.219 16.6819 139.646C16.9059 138.333 17.3798 137.104 18.3278 136.094C18.6663 135.734 19.1194 135.453 19.2705 134.927C19.4423 134.339 19.0778 133.911 18.4736 134.016C18.1507 134.068 17.8746 134.188 17.6455 134.427C14.8955 137.271 13.635 141.661 17.6455 145.042C19.5465 146.651 21.8382 147.286 24.2705 147.516C26.1923 147.703 28.1246 147.714 30.0569 147.688C30.1871 148.484 29.7809 148.922 29.4996 149.385C27.9267 151.922 26.109 154.307 23.7965 156.177C20.0673 159.193 15.859 161.078 10.8955 160.635C9.58296 160.516 8.27046 160.307 6.95276 160.26C5.62463 160.208 5.42151 160.5 5.54651 161.813C5.95276 165.807 9.21838 168.661 13.6194 168.87C15.6455 168.969 17.6715 168.885 19.6403 168.448C21.51 168.036 23.2288 167.974 24.9423 169.484C22.5621 172.464 20.1923 175.417 17.635 178.198C11.8955 184.427 6.51005 190.958 1.07255 197.443C0.088173 198.656 0.317338 199.307 1.87984 199.583ZM354.807 187.495C355.703 188.87 356.427 190.354 357.182 191.813C357.734 192.875 357.619 193.156 356.39 193.234C353.75 193.396 351.099 193.448 348.453 193.547C340.448 193.839 332.448 194.141 324.442 194.406C315.614 194.698 306.786 194.813 297.963 194.953C289.27 195.094 280.562 194.646 271.88 195.344C271.578 195.365 271.25 195.438 270.922 195.026C271.166 194.49 271.729 194.182 272.182 193.792C273.875 192.375 275.583 190.958 276.458 188.818C276.573 188.542 276.807 188.297 277.031 188.089C280.734 184.677 283.187 180.474 284.838 175.76C285.099 175.01 285.13 174.37 286.307 174.667C287.562 174.99 288.26 174.401 288.734 172.865C289.578 170.141 290.151 167.37 290.047 164.495C290 163.349 289.906 162.25 290.703 161.255C291.052 160.823 290.942 160.167 290.958 159.599C290.984 158.417 290.864 157.255 290.656 156.109C290.448 154.969 290.156 153.839 289.854 152.708C289.708 152.13 289.619 151.771 289.635 151.531C289.666 151.13 290 151.057 290.895 150.839C291.932 150.583 292.979 150.328 294 150.016C294.677 149.807 295.239 149.37 295.573 148.729C296.244 147.458 295.823 146.719 294.39 146.656C291.484 146.531 288.604 146.266 285.859 145.234C285.515 145.109 285.114 145.089 284.786 144.62C285.687 144.063 286.515 143.448 287.427 143C291.13 141.161 293.672 138.146 295.859 134.781C297.64 132.031 299.489 129.302 300.369 126.078C300.401 125.958 300.468 125.849 300.536 125.734C300.817 125.271 301.505 124.922 301.26 124.302C301.036 123.729 300.588 123.245 300.187 122.76C299.948 122.469 299.645 122.219 299.333 122.021C295.703 119.609 292.448 116.693 288.932 114.12C288.682 113.932 288.416 113.755 288.343 113.302C289.859 112.526 291.536 111.958 292.828 110.703C293.224 110.313 293.619 110.849 293.932 111.12C295.895 112.802 297.864 114.495 299.797 116.208C302.057 118.214 304.422 120.135 306.5 122.333C307.781 123.693 308.974 125.13 310.385 126.385C313.114 128.813 315.698 131.396 318.302 134.172C317.625 134.953 316.786 135.37 315.974 135.776C310.401 138.526 305.588 142.177 301.869 147.25C300.364 149.302 298.291 150.802 295.843 151.651C294.536 152.109 293.229 152.62 291.807 152.057C291.166 151.802 290.734 152.193 290.39 152.698C290.739 153.599 291.448 153.854 292.343 153.906C294.703 154.026 296.776 153.24 298.797 152.089C301.385 150.604 303.109 148.255 305.088 146.146C307.02 144.083 308.854 141.885 311.312 140.38C312.27 139.792 313.255 139.234 314.27 138.729C315.797 137.964 317.323 137.219 318.682 136.172C319.369 135.641 319.979 135.667 320.635 136.37C322.713 138.578 324.974 140.615 326.916 142.922C328.307 144.568 328.14 146.729 327.744 148.75C327.031 152.38 325.614 155.75 323.791 158.958C323.234 159.948 322.619 160.911 322.041 161.885C320.057 165.208 316.953 167.234 313.703 169.089C312.109 170 310.614 171.073 309.349 172.411C307.177 174.698 307.614 177.286 310.401 178.781C311.354 179.292 312.349 179.651 313.442 179.745C316.599 180.047 319.77 180.052 322.843 179.292C324.479 178.885 326.047 178.474 327.755 178.49C329.151 178.505 330.411 177.797 331.604 177.042C334.619 175.13 337.177 172.708 339.52 170.036C339.974 169.516 340.416 168.974 340.885 168.469C341.25 168.073 341.567 168.042 341.937 168.552C346.432 174.729 350.651 181.094 354.807 187.495ZM284.343 142.625C284.172 142.708 283.958 142.724 283.828 142.849C282.489 144.146 281.385 143.411 280.25 142.49C278.125 140.771 276.765 138.24 276.166 134.714C281.755 134.938 287.307 135.495 293.083 135.214C292.797 136.214 292.328 136.776 291.843 137.328C289.744 139.677 287.166 141.323 284.343 142.625ZM213.427 58.4323C213.375 58.375 213.416 58.2292 213.411 58.125C213.479 58.1355 213.547 58.1407 213.599 58.1615C213.77 58.224 213.89 58.3438 213.948 58.5365C213.958 58.5209 213.968 58.5157 213.979 58.5L213.963 58.5209L213.948 58.5469C214.567 58.5313 215 58.9271 215.479 59.224C221.765 63.2292 228.369 66.698 234.812 70.4375C242.234 74.7552 249.739 78.9375 256.948 83.6042C259.536 85.2761 262.172 86.9167 264.437 89.0625C265.406 89.9844 266.541 90.6771 267.724 91.2969C274.51 94.8959 280.651 99.4011 286.302 104.599C287.739 105.922 289.27 107.151 290.755 108.422C291.036 108.661 291.364 108.87 291.479 109.391C290.323 110.552 288.854 111.234 287.276 111.672C286.547 111.875 285.776 111.818 285.099 111.344C278.177 106.51 270.265 103.542 262.895 99.573C257.239 96.5261 251.724 93.2605 246.489 89.5052C241.151 85.6719 236.114 81.5 231.145 77.224C226.02 72.8073 221.489 67.823 216.968 62.8073C216 61.7344 215.114 60.5782 214.203 59.448C213.994 59.198 213.64 58.9323 213.942 58.5365C213.942 58.5365 213.942 58.5365 213.942 58.5313C213.739 58.8125 213.567 58.5886 213.427 58.4323ZM310.609 174.01C310.593 174.01 310.578 174.016 310.562 174.016C310.338 174.49 310.13 174.984 309.422 175.641C309.505 175.406 309.562 175.182 309.625 174.99C309.786 174.422 309.942 174.047 310.562 174.01C310.573 173.995 310.573 173.99 310.578 173.974C310.588 173.964 310.593 173.958 310.609 173.948C310.573 173.578 310.781 173.38 311.026 173.219C311.234 173.068 311.474 172.943 311.578 172.714C311.536 172.771 311.505 172.828 311.468 172.88C311.51 172.828 311.547 172.776 311.578 172.714C311.323 173.021 311.177 173.417 310.906 173.719C310.823 173.807 310.729 173.885 310.614 173.948C310.609 173.979 310.609 173.995 310.609 174.01ZM327.208 112.786C331.187 119.948 336.677 125.865 342.458 131.542C344.672 133.708 346.776 136.021 349.213 137.891C350.885 139.177 352.192 140.688 353.505 142.26C354.739 143.734 355.567 145.432 356.213 147.224C356.922 149.198 356.677 151.078 355.39 152.781C353.823 154.854 352.213 156.927 349.942 158.234C345.088 161.042 341.416 165.094 337.895 169.333C335.901 171.734 333.583 173.771 331 175.505C329.666 176.401 328.234 176.911 326.583 176.948C325.343 176.979 324.093 177.172 322.88 177.531C322.479 177.651 322.015 177.906 321.645 177.505C321.213 177.042 321.51 176.521 321.703 176.089C322.187 174.958 323.166 174.401 324.286 174.063C324.635 173.958 325.062 174.047 325.323 173.703C325.51 173.448 325.718 173.193 325.651 172.849C325.578 172.453 325.239 172.417 324.932 172.38C323.27 172.188 321.963 172.875 320.989 174.161C320.302 175.057 319.666 176.031 319.583 177.219C319.541 177.833 319.229 178.109 318.614 178.13C317.791 178.161 316.979 178.266 316.161 178.276C315.218 178.281 314.89 177.833 315.25 176.932C315.765 175.677 316.614 174.661 317.807 173.99C318.687 173.495 319.609 173.083 320.51 172.635C320.791 172.5 321.099 172.401 321.354 172.224C321.672 172 321.927 171.667 321.776 171.255C321.63 170.844 321.239 170.703 320.843 170.802C319.994 171.016 319.161 171.297 318.317 171.547C315.911 172.755 314.13 174.49 313.39 177.182C313.161 178.036 312.645 178.089 311.599 177.635C310.708 177.255 310.974 176.719 311.349 176.141C312.958 173.656 314.817 171.505 318.041 171.203C318.062 171.063 318.078 170.938 318.078 170.818C318.062 170 317.411 169.755 316.453 169.708C317.109 168.849 317.854 168.198 318.661 168.161C319.724 168.115 320.234 167.51 320.791 166.844C324.974 161.891 328.047 156.38 329.375 149.979C329.708 148.365 329.875 146.724 329.588 145.078C329.349 143.688 328.797 142.51 327.828 141.406C324.067 137.141 320 133.193 315.875 129.286C314.942 128.406 313.916 127.516 313.317 126.198C319.307 123.042 324.239 118.906 326.198 112.25C326.911 112.057 327.047 112.49 327.208 112.786ZM185.567 10.8698C186.724 9.90629 188.057 9.15108 189.281 8.26046C192.26 6.099 195.416 4.32296 199.02 3.42712C201.161 2.89587 203.291 2.28129 205.515 2.25525C209.802 2.19275 214.088 1.80212 218.364 2.38025C225.76 3.37504 231.922 6.47921 236.375 12.6667C240.198 17.974 244.682 22.6667 249.651 26.9011C253.552 30.2292 256.984 34.0105 260.26 37.948C263.536 41.8802 266.828 45.8021 270.062 49.7552C271.02 50.9219 271.817 52.2188 272.698 53.4532C276.182 58.3282 280.526 62.2344 285.963 64.7552C293.328 68.1719 299.448 73.1302 304.468 79.4532C309.698 86.0261 314.927 92.599 319.541 99.6302C321.375 102.427 322.932 105.406 324.656 108.271C325.119 109.047 325.13 109.76 324.911 110.604C323.734 115.13 321.255 118.734 317.406 121.38C316.27 122.167 315.302 123.188 314.005 123.755C311.869 124.672 311.302 124.62 309.682 123.026C303.552 117.005 297.052 111.411 290.463 105.906C288.14 103.969 285.838 102.016 283.666 99.8959C281.609 97.8907 279.005 96.4427 276.703 94.6823C273.286 92.0469 269.161 90.5573 265.781 87.9115C262.541 85.375 259.213 82.9896 255.724 80.8282C249.708 77.1198 243.593 73.5886 237.494 70.0209C232.052 66.8386 226.422 63.974 221.041 60.7084C215.984 57.6407 210.89 54.5886 206.39 50.6719C205.5 49.8907 204.406 49.3282 203.489 48.5521C203.239 48.3438 202.953 48.1563 202.63 48.2396C200.734 48.724 198.77 48.4636 196.849 49.0157C194.854 49.5938 193.145 50.2865 192.13 52.224C191.817 52.823 191.26 53.2969 190.526 54.1615C182.619 44.3855 175.432 34.4896 171.198 22.7396C175.864 18.5521 180.823 14.8438 185.567 10.8698ZM150.265 34.6198C154.276 31.8594 158.442 29.3907 162.781 27.1927C164.687 26.2188 166.541 25.1355 168.427 24.1094C168.755 23.9271 169.093 23.7657 169.354 23.6302C169.948 23.6875 169.948 24.1303 170.083 24.4688C170.666 25.9323 171.224 27.4063 171.812 28.8646C173.031 31.8646 174.692 34.6198 176.39 37.3542C179.609 42.5678 182.88 47.7448 186.781 52.4844C187.422 53.2709 188.041 54.0938 188.895 54.6407C189.484 55.0209 189.552 55.3646 189.088 55.823C186 58.8959 182.859 61.9115 178.859 63.8125C178.062 64.1928 177.307 64.1198 176.5 63.7292C171.494 61.2917 166.843 58.323 162.531 54.7813C158.057 51.1094 154.442 46.6771 151 42.0834C150.13 40.9323 149.463 39.6355 149.057 38.2136C148.432 35.9636 148.422 35.8907 150.265 34.6198ZM123.994 71.2969C123.958 70.474 123.953 69.625 123.645 68.8698C123.213 67.8073 123.489 66.9063 123.979 65.9792C128.687 57.1094 134.474 49.0157 141.468 41.823C142.781 40.4688 144.297 39.3125 145.729 38.0834C146.015 37.8438 146.281 37.5521 146.885 37.573C147.395 39.323 148.192 41.0209 149.208 42.6146C150.849 45.1875 152.906 47.4167 154.922 49.6667C160.062 55.4115 166.015 60.1459 172.812 63.7969C173.812 64.3334 174.828 64.8438 175.859 65.3282C176.547 65.6511 176.807 66.0261 176.416 66.8021C174.755 70.0886 174.052 73.7292 172.75 77.1459C171.536 80.3021 170.015 83.2657 167.661 85.698C166.026 87.3802 163.979 88.5782 162.005 89.7969C159.27 91.4844 156.422 92.9948 153.614 94.573C153.458 94.6667 153.26 94.6823 153.073 94.7344C152.906 94.948 152.698 95.0625 152.505 94.8125C152.5 94.8021 152.5 94.7761 152.51 94.7448C152.552 94.6563 152.677 94.5 152.734 94.3907C153.541 93.2813 154.484 92.2709 155.265 91.1407C155.526 90.7657 155.77 90.3802 155.989 89.974C156.708 88.6302 157.286 87.2552 157.323 85.6823C157.364 83.9844 156.833 82.4636 155.52 81.4792C153.161 79.7188 150.781 77.9427 147.687 77.6094C145.672 77.3959 143.651 77.2657 141.651 77.5677C139.286 77.9167 136.895 78.2344 134.63 79.0417C128.218 81.3125 123.718 85.4636 121.942 92.2292C121.64 93.3855 121.203 94.5105 121.349 95.7552C121.401 96.2448 121.286 96.7396 120.729 97.1094C120.286 96.3855 120.422 95.6875 120.427 95.0313C120.468 90.3855 121.255 85.8542 122.453 81.375C123.307 78.0625 124.161 74.7605 123.994 71.2969ZM122.182 70.1667C122.765 75.1042 121.099 79.6823 119.942 84.6198C119.505 81.8073 120.875 72.5677 122.182 70.1667ZM117.401 84.1719C118.01 84.5625 117.833 85.0313 117.786 85.4219C117.401 88.875 117.156 92.3542 116.526 95.7657C115.869 99.3646 114.036 102.495 111.802 105.37C111.093 106.281 109.911 106.708 108.932 106.37C107.5 105.885 105.979 105.807 104.239 105.203C108.88 98.1667 113.437 91.3802 117.401 84.1719ZM20.5882 166.682C17.7548 167.438 14.8746 167.635 11.9788 167.104C9.80692 166.708 8.36942 165.401 7.61421 163.344C7.24442 162.318 7.5413 161.891 8.63505 161.99C9.77046 162.094 10.8955 162.177 12.0309 162.208C16.234 162.318 19.9319 160.927 23.3486 158.578C26.859 156.161 29.4267 152.927 31.6246 149.344C31.76 149.13 31.833 148.885 31.9319 148.656C32.6559 146.943 32.1715 146.12 30.3278 146.193C27.7392 146.292 25.1663 146.365 22.6142 145.797C21.26 145.495 20.0257 145.005 18.9736 144.115C19.1559 143.786 19.3746 143.682 19.635 143.667C26.3121 143.417 31.8278 140.5 36.7757 136.24C41.2184 132.406 44.6819 127.818 47.7496 122.833C50.7028 118.026 54.2236 113.661 59.3642 110.995C60.8746 110.208 62.583 109.938 64.2705 109.641C66.6559 109.214 69.0725 109.219 71.4163 109.505C74.2757 109.849 76.7444 111.344 78.734 113.505C79.6767 114.526 80.3538 115.771 81.4528 116.656C82.0413 117.125 81.6923 117.703 81.6663 118.234C81.6455 118.75 81.5465 119.302 82.2548 119.422C82.9007 119.536 83.1507 119.109 83.2809 118.563C83.5725 117.339 83.8746 116.109 84.1663 114.875C85.3746 109.75 88.5309 107.516 93.4944 106.865C97.7705 106.302 102.052 106.797 106.307 107.443C106.531 107.479 106.755 107.516 106.963 107.573C107.177 107.635 107.38 107.703 107.583 107.786C107.984 107.948 108.359 108.172 108.698 108.464C110.38 108.12 111.906 107.229 113.619 106.99C113.864 106.953 114.109 106.932 114.364 106.932C114.093 105.51 114.557 104.344 115.338 103.141C116.489 101.365 117.432 99.4532 117.75 97.3073C117.817 96.8646 117.984 96.4688 118.26 96.1146C118.25 95.8073 118.208 95.4948 118.25 95.198C118.369 94.4792 118.526 93.7657 118.708 92.8646C118.75 94.0834 118.927 95.1042 118.593 96.1146C119.005 97.1563 118.797 98.375 119.588 99.323C119.906 99.7084 119.557 100.172 119.338 100.542C118.281 102.406 117.208 104.255 116.145 106.109C116.041 106.286 115.932 106.453 115.812 106.594C115.442 107.016 114.989 107.214 114.312 106.953C113.005 107.724 111.604 108.25 110.145 108.667C110.187 109.057 110.224 109.349 110.26 109.563C110.281 109.672 110.302 109.76 110.333 109.828C110.432 110.036 110.578 110.089 110.864 110.042C111.052 110.021 111.302 109.953 111.64 109.865C112.229 109.714 112.765 109.26 113.453 109.505C113.588 110.188 113.041 110.516 112.729 110.958C108.895 116.365 104.083 120.813 99.0465 125.057C96.1507 127.495 93.1298 129.813 91.083 133.094C90.0153 134.818 88.8694 136.479 87.8538 138.229C87.3694 139.063 86.8226 139.026 86.1455 138.677C85.583 138.385 85.0205 138.047 84.6871 137.495C83.4267 135.365 82.2809 133.203 82.7184 130.563C82.9684 129.089 82.0413 128.438 80.6507 129.057C79.1611 129.724 78.1663 130.979 77.2132 132.234C74.9059 135.266 73.1819 138.646 71.5361 142.063C69.2913 146.724 67.3121 151.542 64.3955 155.844C60.583 161.453 55.5934 165.286 48.5621 165.969C46.5778 166.161 44.6246 166.771 42.6767 167.25C38.0882 168.365 33.4215 168.385 28.7548 168.245C27.5153 168.208 26.2548 167.995 24.9996 167.438C25.5048 166.74 26.3278 166.682 26.9163 166.255C27.3434 165.948 27.8069 165.672 27.5153 165.057C27.2028 164.391 26.6038 164.359 26.0725 164.682C24.3746 165.698 22.4684 166.177 20.5882 166.682ZM83.8017 140.911C80.5778 144.208 77.6663 147.786 74.6715 151.281C73.1819 153.005 71.6611 154.688 69.9007 156.135C68.4007 157.359 66.7392 158.297 64.9267 158.906C64.8434 158.802 64.7548 158.698 64.6715 158.594C65.3069 157.615 65.9267 156.625 66.5725 155.656C68.3069 153.083 69.5517 150.255 70.885 147.464C73.1923 142.646 75.1819 137.646 78.51 133.38C79.0569 132.677 79.4528 131.714 80.458 131.49C80.8121 131.729 80.833 132.047 80.8903 132.354C81.3642 135.01 82.2705 137.479 84.0986 139.516C84.6975 140.193 84.1975 140.51 83.8017 140.911ZM4.19755 196.38C9.53088 190.068 14.8434 183.74 20.458 177.661C22.3382 175.625 24.0621 173.432 25.7444 171.234C26.6507 170.063 27.6871 169.615 29.1194 169.792C32.7132 170.24 36.2809 169.948 39.8642 169.5C42.6298 169.156 45.2653 168.234 48.01 167.87C50.01 167.609 51.9892 167.302 53.8798 166.536C56.1975 165.609 58.26 164.302 60.1923 162.776C61.2548 161.932 62.2288 161.323 63.6767 161.005C67.208 160.208 70.3278 158.417 72.9215 155.76C75.7965 152.818 78.3173 149.583 81.0465 146.521C82.1975 145.229 83.2496 143.807 84.859 142.688C83.9267 144.406 82.9267 145.87 81.7965 147.208C78.734 150.828 75.8278 154.563 72.6298 158.078C69.109 161.953 64.7965 164.406 59.9267 165.984C55.8434 167.307 51.7132 168.443 47.609 169.703C45.5413 170.339 43.6455 171.354 41.9528 172.703C39.3798 174.745 36.9475 176.948 34.6611 179.323C34.0048 180.01 33.3798 180.729 32.9319 181.563C32.26 182.813 32.5205 183.891 33.6923 184.698C34.708 185.396 35.8642 185.688 37.0882 185.724C39.1819 185.781 41.2496 185.516 43.2809 185.026C46.958 184.146 50.6194 183.208 54.2913 182.292C54.7392 182.177 55.2236 182.104 55.6298 181.917C56.0309 181.724 56.3538 181.406 56.4788 180.807C56.0778 180.255 55.5986 180.203 55.1038 180.286C54.8173 180.339 54.5153 180.438 54.2236 180.5C50.359 181.422 46.4944 182.359 42.6403 183.302C41.9007 183.479 41.1819 183.604 40.2496 183.479C40.8694 182.604 41.7288 182.292 42.4528 181.922C45.0413 180.635 47.6871 179.453 50.3225 178.234C51.9996 177.458 53.7705 177.042 55.6038 176.823C56.1298 176.76 56.8955 176.927 56.8903 176.083C56.8903 175.089 56.083 175.078 55.3746 175.125C53.7861 175.214 52.2548 175.609 50.7861 176.193C46.6142 177.849 42.5569 179.74 38.7132 182.073C38.2809 182.333 37.8642 182.568 37.5621 183.021C36.885 184.073 36.5778 184.146 35.484 183.646C35.0934 183.464 34.5934 183.354 34.6038 182.792C34.609 182.333 35.0413 182.255 35.3538 182.052C38.458 180.026 41.5413 177.953 44.7653 176.099C46.859 174.891 49.0257 173.911 51.4423 173.568C51.7496 173.526 52.0673 173.458 52.3382 173.323C52.6194 173.172 52.8173 172.88 52.734 172.536C52.6715 172.281 52.4632 172.12 52.2184 172.026C51.7236 171.849 51.2184 171.917 50.7184 171.974C48.9371 172.188 47.3173 172.896 45.7184 173.667C44.4736 174.266 43.2444 174.901 42.01 175.521C41.9423 175.635 41.8642 175.714 41.7653 175.766C41.6663 175.818 41.5465 175.849 41.4319 175.865C41.1923 176.24 40.8225 176.411 40.3642 176.536C40.4371 176.448 40.51 176.365 40.5882 176.292C40.8173 176.068 41.0621 175.917 41.4007 175.896C41.2965 175.526 41.5778 175.422 41.8121 175.281C43.3226 173.495 45.333 172.469 47.4788 171.667C51.2132 170.276 55.0934 169.38 58.9059 168.266C65.3069 166.396 70.7965 163.141 75.1455 158.005C76.984 155.833 78.734 153.599 80.5986 151.458C83.3173 148.354 85.6767 145.021 87.8382 141.531C89.2392 139.281 90.6351 137.031 92.0153 134.766C93.7184 131.969 96.0882 129.807 98.583 127.755C103.567 123.661 108.401 119.422 112.416 114.323C116.26 109.438 119.599 104.229 122.244 98.6094C123.838 95.2136 125.599 91.974 128.119 89.1771C129.562 87.573 131.067 86.0573 132.911 84.9167C133.307 84.6771 133.734 84.4271 133.567 83.9011C133.364 83.2657 132.776 83.349 132.291 83.4688C131.395 83.6823 130.739 84.2969 130.104 84.9167C128.713 86.2865 127.213 87.5573 125.989 89.099C125.687 89.474 125.427 89.9688 124.807 90.0209C124.453 89.6407 124.578 89.2657 124.823 88.875C126.963 85.4896 129.672 82.7032 133.479 81.2605C137.89 79.5782 142.432 78.7032 147.198 79.2396C149.88 79.5469 152.01 81.0052 154.213 82.2917C155.302 82.9271 155.718 84.1094 155.666 85.4115C155.588 87.4792 154.661 89.1823 153.38 90.7084C151.224 93.2761 149.036 95.8021 146.864 98.3594C143.916 101.844 141.515 105.714 139.088 109.563C136.104 114.307 132.458 118.453 128.203 122.094C125.323 124.563 122.833 127.432 120.302 130.26C117.145 133.797 114.213 137.531 110.869 140.896C106.687 145.115 102.047 148.833 97.5309 152.688C92.7236 156.776 87.9059 160.87 82.9059 164.734C81.2496 166.016 80.3121 167.969 79.0778 169.641C76.6663 172.927 73.6767 175.438 69.9111 177.031C66.6767 178.401 63.2965 179.094 59.8642 179.625C58.8278 179.786 57.6871 179.755 56.9944 180.792C57.2236 181.536 57.7548 181.734 58.4684 181.63C63.3434 180.906 68.1871 180.115 72.6038 177.719C75.4163 176.193 78.0048 174.286 79.734 171.63C82.4788 167.406 86.1351 164.203 90.1194 161.302C91.1351 160.563 92.0309 159.677 93.0101 158.885C93.5934 158.417 94.2028 157.974 94.8798 157.62C94.9788 157.438 95.0986 157.26 95.2236 157.104C95.6142 156.635 96.1194 156.281 96.5882 155.885C102.364 151.026 108.224 146.245 113.468 140.786C115.51 138.651 117.38 136.349 119.333 134.135C119.578 133.859 119.864 133.615 120.125 133.349C121.198 131.802 122.411 130.375 123.817 129.115C124.854 127.786 126.031 126.604 127.291 125.422C127.713 125.031 128.145 124.635 128.578 124.24C129.354 125.318 129.963 126.531 131.338 126.875C133.672 126.328 135.994 125.75 138.27 124.979C139.036 124.719 139.864 124.672 140.692 124.656C141.932 124.635 142.02 124.411 141.583 123.141C141.333 122.422 141.14 121.682 140.859 120.984C140.031 118.958 138.895 117.276 136.39 117.245C136.297 117.245 136.208 117.099 136.031 116.938C136.635 115.63 137.797 114.724 138.64 113.583C139.01 113.078 139.536 113.193 139.979 113.552C140.468 113.953 140.948 114.411 141.151 115.016C142.208 118.266 143.359 121.495 142.588 125.016C142.453 125.63 142.375 126.25 142.109 126.833C141.411 128.411 140.963 130.052 140.927 131.786C140.901 132.932 140.401 133.62 139.359 134.12C136.734 135.37 134.927 137.38 134 140.188C133.307 142.281 132.474 144.323 131.76 146.401C131.593 146.911 131.25 147.063 130.859 147.255C129.672 147.844 128.463 148.385 127.172 148.719C126.291 148.953 125.635 149.396 126.114 150.479C129.562 150.245 132.312 148.521 134.828 146.333C135.911 145.391 136.911 144.359 138.01 143.313C138.364 144.083 138.062 144.667 137.859 145.219C136.494 148.922 134.088 151.578 130.218 152.724C129.375 152.979 128.526 153.219 127.666 153.417C127.041 153.568 126.302 153.667 126.39 154.495C126.479 155.333 127.291 155.26 127.895 155.297C128.583 155.333 129.286 155.302 129.979 155.234C134.01 154.802 136.895 156.896 139.744 159.536C138.963 159.911 138.39 159.693 137.797 159.568C135.031 158.958 132.27 158.323 129.422 158.151C126.817 157.995 124.27 158.219 121.77 159.016C119.666 159.677 117.541 160.255 115.333 160.484C112.297 160.802 109.302 160.724 106.515 159.266C106.104 159.052 105.677 158.901 105.328 159.344C105.005 159.745 105.099 160.193 105.385 160.563C106.369 161.786 106.395 163.219 105.828 164.505C105.151 166.052 104.187 167.516 102.609 168.365C100.27 169.615 97.7861 170.443 95.1298 170.786C94.9736 170.12 95.5153 170 95.7861 169.719C97.3226 168.094 98.5465 166.281 99.1663 164.099C99.5517 162.714 99.5101 161.422 99.0309 160.276C98.7913 159.708 98.4476 159.177 97.9944 158.693C97.5361 158.203 96.984 157.766 96.3226 157.38C96.2496 157.464 96.1663 157.516 96.0778 157.542C95.984 157.563 95.8903 157.563 95.7757 157.542C95.708 157.63 95.6142 157.688 95.4996 157.714C95.484 158.458 95.859 159 96.3798 159.521C97.9423 161.078 98.2705 162.828 97.2861 164.875C96.5309 166.443 95.5361 167.802 94.3069 169C93.3226 169.948 92.1142 170.464 90.7496 170.594C90.4944 170.615 90.2392 170.594 89.9944 170.62C89.3694 170.688 88.5413 170.698 88.5257 171.484C88.5101 172.292 89.3434 172.245 89.958 172.38C94.8226 173.474 99.2028 171.969 103.385 169.745C105.807 168.458 107.104 166.219 107.604 163.516C107.922 161.813 107.948 161.828 109.656 162.063C113.213 162.573 116.765 162.354 120.145 161.219C125.494 159.417 130.786 159.5 136.166 160.938C138.234 161.49 140.38 161.714 142.52 161.917C143.52 162.01 144.38 161.677 145.255 161.333C145.567 161.214 145.703 160.891 145.692 160.552C145.687 160.182 145.437 159.932 145.109 159.927C142.494 159.828 140.807 158.099 138.948 156.573C137.291 155.208 135.375 154.224 133.234 153.875C133.083 153.151 133.656 153.109 133.974 152.885C138.088 149.896 140.125 145.797 140.323 140.76C140.349 140.057 140.588 139.401 140.557 138.698C140.536 138.255 140.515 137.75 139.979 137.63C139.427 137.5 139.187 137.922 139.052 138.37C138.411 140.432 137 141.969 135.562 143.479C135.432 143.604 135.276 143.703 135.119 143.797C135.078 143.828 134.994 143.807 134.75 143.807C135.156 141.458 135.807 139.276 137.427 137.484C137.797 137.073 138.208 136.688 138.864 136.708C143.484 136.865 148.041 135.958 152.656 135.969C154.041 135.969 155.02 136.214 155.692 137.599C156.265 138.771 157.099 139.859 157.974 140.844C158.599 141.557 158.734 142.167 158.468 143.068C157.765 145.438 157.213 147.885 157.281 150.344C157.333 152.396 157.145 154.302 156.385 156.193C155.864 157.49 156.13 158.802 156.656 160.068C157.375 161.833 158.416 163.427 159.416 165.036C160.151 166.229 160.781 167.411 160.807 168.885C160.833 169.88 160.974 170.901 161.401 171.849C161.963 173.115 162.698 174.167 164.166 174.458C165.067 174.641 165.567 175.302 165.937 176.047C166.823 177.849 168.187 179.089 170.119 179.604C170.869 179.807 171.078 180.323 171.343 180.901C172.182 182.672 173.088 184.406 174.224 186.016C174.406 186.271 174.578 186.536 174.776 186.786C176.677 189.12 178.619 189.177 180.635 186.958C182.52 184.88 183.797 182.396 185.073 179.927C185.557 178.99 186.041 178.542 187.187 178.458C189.005 178.339 190.797 177.755 192.39 176.854C193.364 176.297 194.073 176.339 194.953 176.974C197.02 178.484 199.385 179.344 201.875 179.88C202.567 180.031 203.25 180.068 203.942 180.036C206.411 179.948 207.859 178.438 207.911 175.927C207.942 174.646 207.672 173.406 207.317 172.198C206.88 170.755 207.515 169.839 208.724 168.656C208.88 173.063 209.255 177.068 210.906 180.833C211.255 181.271 211.619 181.714 211.958 182.172C212.427 182.797 213.01 182.865 213.599 182.427C214.239 181.948 213.692 181.563 213.411 181.177C211.479 178.469 210.724 175.401 210.536 172.109C210.104 164.406 212.864 157.714 216.838 151.354C218.255 149.078 219.953 147.104 222.031 145.422C222.172 145.302 222.307 145.161 222.468 145.083C225.781 143.464 228.52 141.01 231.484 138.87C231.833 138.615 232.218 138.422 232.729 138.12C233.125 138.953 233.109 139.76 233.26 140.531C233.494 141.802 233.953 142.094 235.234 141.797C235.599 141.714 235.968 141.583 236.317 141.443C237.083 141.13 237.729 141.286 238.442 141.729C239.625 142.453 240.911 142.984 242.109 143.688C242.239 143.76 242.369 143.807 242.494 143.839C242.838 143.911 243.182 143.854 243.515 143.906C243.718 142.938 243.411 142.318 242.442 141.885C241.182 141.318 239.911 140.75 238.77 139.938C238.177 139.516 237.505 139.401 236.786 139.583C236.244 139.714 235.692 139.833 235.047 139.979C234.625 139.208 234.781 138.354 234.562 137.599C234.041 135.776 233.453 135.49 231.906 136.552C230.14 137.771 228.432 139.063 226.729 140.375C224.739 141.901 222.557 143.125 220.432 144.443C219.885 144.781 219.437 145.214 218.994 145.661C215.89 148.813 213.604 152.484 211.984 156.589C211.588 157.594 211.203 158.589 210.807 159.589C210.739 159.771 210.724 160.016 210.599 160.115C208.645 161.557 209.01 164.078 207.895 165.911C207.474 166.604 207.156 167.375 206.786 168.099C206.672 168.323 206.562 168.677 206.39 168.724C204.145 169.276 205.093 170.63 205.51 171.932C205.854 173.005 206.104 174.12 206.25 175.245C206.515 177.474 205.51 178.318 203.75 178.313C201.645 178.313 199.802 177.594 198.005 176.703C196.885 176.151 195.729 175.609 194.765 174.771C194.166 174.255 193.625 174.198 192.885 174.599C192.39 174.87 191.901 175.156 191.385 175.401C190.88 175.646 190.349 175.849 189.776 175.953C189.198 176.313 188.578 176.536 187.932 176.63C187.713 176.656 187.5 176.667 187.276 176.667C185.364 176.635 184.14 177.427 183.416 179.271C182.687 181.146 181.656 182.896 180.468 184.542C180.031 185.156 179.547 185.755 179 186.26C177.968 187.219 177.192 187.146 176.328 185.984C174.703 183.807 173.359 181.453 172.27 178.964C172.047 178.438 171.812 177.922 171.635 177.385C171.484 176.927 171.255 176.547 170.755 176.516C170.198 176.479 170.062 176.943 169.948 177.385C169.927 177.479 169.791 177.542 169.666 177.667C168.494 177.172 167.937 176.099 167.328 175.078C166.734 174.078 166.145 173.172 164.781 173.125C164.151 173.104 163.677 172.589 163.359 171.984C163.005 171.302 162.635 170.583 162.666 169.844C162.807 166.771 161.161 164.406 159.51 162.141C157.661 159.599 157.364 157.115 158.833 154.385C159.151 153.792 159.177 153.203 159.099 152.557C159.02 151.87 159.041 151.172 159.02 150.479C158.885 147.979 159.39 145.521 160.255 143.26C160.885 141.625 160.989 139.661 162.479 138.391C162.781 138.135 162.974 137.802 162.63 137.417C162.302 137.047 161.906 136.932 161.442 137.141C161.073 137.307 160.906 137.656 160.666 137.948C160.234 138.469 160.14 139.224 159.437 139.703C158.281 138.797 157.698 137.427 156.875 136.276C155.666 134.578 154.797 132.698 154.338 130.635C154.036 129.234 154.114 127.891 154.453 126.521C154.625 125.833 154.854 125.677 155.468 126.052C156.281 126.542 156.51 126.026 156.474 125.349C156.422 124.38 156.713 123.479 156.833 122.552C156.958 121.583 157.526 121.302 158.338 121.146C158.797 121.474 158.599 121.958 158.692 122.349C158.854 123.026 159.25 123.276 159.927 123.188C160.661 123.078 160.63 122.609 160.541 122.073C160.505 121.833 160.427 121.583 160.755 121.318C161.744 121.885 162.463 122.708 162.635 123.901C162.859 125.469 163.593 126.755 164.578 127.938C165.182 128.661 165.765 129.406 166.281 130.193C166.755 130.922 167.343 131.63 167.119 132.62C167.083 132.781 167.166 132.99 167.239 133.161C167.395 133.531 167.651 133.807 168.083 133.807C168.547 133.807 168.817 133.479 168.807 133.089C168.77 131.891 169.583 131.224 170.375 130.651C171.906 129.552 173.458 128.453 175.218 127.724C177.073 126.953 178.942 126.193 180.833 125.51C182.151 125.042 183.515 124.844 184.932 124.958C185.172 124.979 185.432 125.026 185.687 125.042C186.109 125.063 186.52 124.979 186.812 124.484C186.812 123.911 186.573 123.604 186.213 123.438C186 123.344 185.729 123.297 185.448 123.281C183.932 123.193 182.385 123.141 180.963 123.693C177.448 125.057 173.812 126.182 170.666 128.37C169.895 128.906 169.135 129.458 168.323 130.036C167.213 128.609 166.114 127.224 165.047 125.813C164.583 125.198 164.406 124.464 164.281 123.703C164.135 122.901 163.906 122.13 163.422 121.422C161.041 117.979 156.901 118.865 154.958 121.526C152.562 124.802 151.937 128.391 153.01 132.286C153.093 132.594 153.208 132.885 153.297 133.193C153.364 133.432 153.406 133.677 153.52 134.141C149.609 134.396 145.776 134.651 141.708 134.922C142.323 133.88 142.713 133.026 142.708 132.057C142.687 130.26 143.099 128.573 143.864 126.943C144.968 124.594 144.692 122.115 144.255 119.682C143.963 118.078 143.479 116.49 142.968 114.927C142.573 113.714 141.927 112.609 140.812 111.891C140.177 111.479 140.224 111.099 140.599 110.505C142.885 106.87 145.172 103.234 147.859 99.8698C148.093 99.5782 148.26 99.2188 148.625 99.0573C153.833 96.7813 158.588 93.6459 163.526 90.8802C168.317 88.2032 171.651 84.1198 173.651 79C175.166 75.1198 176.573 71.1927 178.02 67.2917C178.312 66.5052 178.651 65.7917 179.5 65.4271C183.349 63.7657 186.359 60.9636 189.291 58.0834C191 56.4063 192.484 54.474 194.192 52.823C195.713 51.349 197.494 49.8334 199.994 50.3907C200.114 50.4219 200.255 50.4532 200.369 50.4323C203.463 49.7865 205.338 51.849 207.114 53.7448C209.354 56.1355 211.312 58.7865 213.395 61.3282C218.172 67.1407 223.333 72.599 228.948 77.6042C235.073 83.0625 241.343 88.3386 248.198 92.8855C255.505 97.7396 263.156 101.964 271.093 105.693C278.526 109.182 285.645 113.198 291.849 118.682C293.64 120.26 295.536 121.734 297.656 122.901C299.463 123.896 299.661 124.859 298.687 126.646C297.557 128.693 296.401 130.719 295.276 132.76C294.968 133.323 294.604 133.604 293.932 133.552C290.224 133.266 286.5 133.708 282.802 133.276C280.411 133 278.02 132.953 275.625 132.99C274.823 133.005 274.213 132.797 273.625 132.182C271.817 130.323 269.797 128.719 267.578 127.349C265.932 126.333 264.672 124.792 262.901 123.875C258.239 121.458 253.343 119.682 248.343 118.161C241.885 116.182 235.27 114.844 228.588 113.849C225.885 113.448 223.172 113.661 220.463 113.635C219.77 113.625 219.073 113.729 218.416 113.396C217.948 113.156 217.401 113.156 216.932 113.281C214.849 113.833 212.656 113.656 210.588 114.292C209.76 114.547 209.13 114.375 208.765 113.49C208.463 112.776 207.869 112.609 207.198 112.885C203.75 114.297 200.375 115.849 197.198 117.807C197.005 117.927 196.89 118.203 196.744 118.406C196.625 118.391 196.453 118.411 196.39 118.344C194.682 116.214 192.437 116.573 190.198 117.016C188.281 117.391 187.354 118.516 187.437 120.479C187.489 121.792 187.724 123.109 187.88 124.427C189.302 128.833 192.13 132.422 194.698 136.161C196.864 137.396 198.333 139.594 200.729 140.51C201.182 140.682 201.75 141.016 202.062 140.401C202.369 139.813 202.083 139.313 201.458 139.042C199.906 138.37 198.713 137.276 197.75 135.906C197.645 135.75 197.526 135.505 197.39 135.484C195.317 135.219 194.765 133.307 193.75 131.99C192.604 130.5 191.734 128.786 190.786 127.151C189.76 125.37 189.125 123.479 189.364 121.38C189.484 121.328 189.593 121.234 189.677 121.255C190.182 121.38 190.713 121.953 191.161 121.224C191.578 120.557 191.02 120.203 190.625 119.802C190.401 119.589 190.172 119.365 190.172 118.771C191.786 118.563 193.369 118.172 194.906 119.38C196.849 120.896 198.77 122.391 200.198 124.464C201.234 125.969 202.927 126.646 204.489 127.464C204.672 127.563 204.979 127.484 205.203 127.427C206.911 126.953 208.291 127.547 209.494 128.729C209.76 128.99 210.015 129.302 210.432 129.281C210.776 129.26 210.984 128.995 211.14 128.714C211.328 128.375 211.14 128.109 210.948 127.859C209.635 126.229 207.906 125.229 205.843 125.542C204.218 125.786 203.198 125.057 202.218 124.12C200.718 122.682 199.609 120.875 197.958 119.557C198.63 118.766 199.489 118.323 200.307 117.906C202.213 116.932 204.172 116.063 206.093 115.12C206.776 114.786 207.276 114.547 207.802 115.443C208.25 116.214 209.083 116.313 209.984 116.141C211.906 115.781 213.838 115.474 215.77 115.214C216.755 115.078 217.744 114.927 218.744 115.349C219.177 115.526 219.744 115.443 220.244 115.406C226.093 114.99 231.797 115.984 237.474 117.219C242.39 118.286 247.307 119.391 252.015 121.182C255.119 122.365 258.343 123.281 261.244 124.943C265.015 127.104 268.625 129.505 271.661 132.646C273.218 134.255 274.625 135.984 275.385 138.214C276.562 141.661 278.942 144.099 282.323 145.557C285.63 146.984 289.031 148.01 292.89 148.339C291.927 149.12 290.932 149.01 290.078 149.245C288.203 149.745 287.718 150.448 288.083 152.396C288.442 154.318 289.14 156.172 289.343 158.13C289.463 159.26 289.651 160.354 288.619 161.271C288.078 161.75 288.26 162.573 288.286 163.271C288.395 166.057 288.286 168.828 287.406 171.51C287.286 171.87 287.234 172.281 287.026 172.573C286.708 173.016 286.406 173.292 285.906 172.583C285.203 171.589 284.651 171.656 284.198 172.708C283.703 173.87 283.411 175.109 282.927 176.276C281.25 180.266 279.083 183.938 275.859 186.891C275.64 187.099 275.375 187.339 275.286 187.615C274.666 189.453 273.265 190.568 271.817 191.729C269.25 193.781 266.645 195.76 263.828 197.453C259.552 200.016 254.807 200.885 249.948 201.313C249.395 201.365 248.807 201.25 248.26 201.125C245.802 200.557 243.343 200.078 240.791 200.12C239.182 200.151 237.979 199.432 237.145 197.901C235.916 195.651 234.057 194.953 231.562 195.5C230.698 195.688 229.833 195.859 228.984 196.068C227.385 196.458 225.802 196.339 224.359 195.635C220.843 193.927 217.812 191.625 215.755 188.214C215.625 188.01 215.583 187.76 215.484 187.495C216.276 187.13 217.172 187.234 217.807 186.651C218.109 186.375 218.276 186.068 218.02 185.661C217.823 185.333 217.573 184.891 217.172 185.068C213.911 186.411 212.395 183.802 210.463 182.135C210.395 182.073 210.354 181.99 210.307 181.906C210.26 181.818 210.234 181.729 210.182 181.646C210.078 181.578 209.974 181.505 209.869 181.438C209.76 181.37 209.656 181.302 209.547 181.245C209.151 181.047 208.807 181.151 208.547 181.49C208.328 181.766 208.354 182.089 208.531 182.375C208.76 182.745 208.979 183.141 209.27 183.474C209.687 183.943 210.104 184.453 210.619 184.802C212.359 185.979 213.849 187.167 214.531 189.427C215.062 191.193 216.739 192.448 218.187 193.682C218.739 194.151 219.448 194.495 219.708 195.385C217.52 196.188 215.297 196.104 213.151 195.969C201.942 195.297 190.708 195.276 179.5 194.625C168.672 193.99 157.823 193.495 146.968 193.547C137.51 193.594 128.047 193.516 118.593 193.63C108.817 193.74 99.0361 193.974 89.2653 194.219C82.9007 194.385 76.5361 194.646 70.1715 194.932C64.7548 195.177 59.3434 195.557 53.9267 195.828C44.4736 196.302 35.0205 196.646 25.5725 197.214C21.4267 197.469 17.2705 197.167 13.1142 197.745C10.1975 198.146 7.19755 197.891 4.2288 197.922C3.99442 197.922 3.71317 197.969 3.54651 197.63C3.42671 197.057 3.89026 196.74 4.19755 196.38ZM138.453 119.969C138.692 120.26 138.88 120.599 139.047 120.932C139.875 122.573 139.807 122.734 138.062 123.255C136.494 123.724 134.916 124.172 133.343 124.63C132.984 124.734 132.614 124.807 132.27 124.885C131.578 124.719 130.817 124.734 130.604 123.859C130.427 123.125 130.239 122.453 131.093 121.875C131.859 121.359 132.552 120.724 133.145 119.948C134.255 118.479 137.276 118.526 138.453 119.969ZM243.5 143.964C244.494 144.547 245.437 144.031 246.343 143.745C247.666 143.333 248.932 142.76 250.234 142.297C250.703 142.13 251.208 141.99 251.692 141.984C252.76 141.958 253.39 142.833 253.119 143.88C252.88 144.839 252.286 145.563 251.567 146.193C251.328 146.401 251 146.568 251.015 146.901C251.119 148.87 251.031 149.505 250.38 150.943C250.276 151.172 250.151 151.391 250.062 151.63C249.672 152.745 249.854 153.792 250.682 154.615C251.448 155.38 252.349 155.469 253.448 155.078C255.901 154.214 257.333 152.396 258.38 150.167C258.755 149.37 259.015 148.521 259.297 147.688C259.463 147.203 259.76 146.917 260.276 147.016C260.901 147.13 261.041 147.583 260.937 148.151C260.291 151.781 257.463 155.714 253.359 156.797C251.797 157.208 250.323 156.828 249.286 155.484C248.099 153.948 247.958 152.245 248.666 150.474C248.895 149.896 249.276 149.37 249.599 148.818C249.547 148.729 249.515 148.594 249.432 148.547C247.593 147.531 247.562 146.984 249.302 145.854C250.015 145.391 250.895 145.099 251.088 144.078C250.375 143.755 249.843 144.208 249.276 144.427C247.984 144.922 246.718 145.469 245.338 145.714C243.698 146 243.317 145.661 243.5 143.964ZM243.51 143.911C243.51 143.932 243.51 143.948 243.5 143.974C243.489 143.964 243.479 143.964 243.463 143.958C243.463 143.948 243.5 143.911 243.51 143.911ZM194.385 159.37C195.312 160.875 196.041 162.464 196.229 164.146C196.192 164.823 196.177 165.396 195.453 165.589C194.838 165.75 194.323 165.641 193.953 165.115C192.906 163.667 192.401 161.974 191.989 160.276C191.812 159.552 192.229 158.885 192.901 158.573C193.661 158.219 194.062 158.854 194.385 159.37ZM185.849 153.443C185.948 153.219 186.026 152.969 186.156 152.76C186.385 152.396 186.744 152.313 187.135 152.464C187.484 152.604 187.474 152.948 187.505 153.255C187.609 154.344 187.265 155.354 186.932 156.359C185.395 157 183.781 156.401 183.073 154.938C182.797 154.359 183.14 153.802 183.791 153.755C184.203 153.724 184.479 153.974 184.776 154.198C185.932 155.109 185.765 154.099 185.849 153.443ZM187.448 158.776C187.797 159.052 188.036 159.365 188.088 159.729C188.125 159.953 188.093 160.193 187.984 160.464C187.25 160.823 186.281 161.323 185.869 160.406C185.401 159.359 186.645 159.25 187.281 158.865C187.333 158.833 187.395 158.813 187.448 158.776ZM339.187 133.521C338.776 132.896 339.052 132.229 339.687 132.26C340.177 132.318 340.557 132.698 340.828 133.104C341.901 134.672 343.297 135.969 344.468 137.448C344.625 137.646 344.781 137.844 344.906 138.063C345.078 138.354 345.13 138.693 344.906 138.943C344.604 139.281 344.213 139.13 343.869 138.958C343.76 138.906 343.661 138.818 343.573 138.734C341.937 137.135 340.437 135.438 339.187 133.521ZM182.963 166.74C183.015 167.396 182.864 168.057 182.036 168.281C181.14 168.526 180.833 167.859 180.515 167.224C179.911 166.036 179.567 164.771 179.333 163.469C179.244 162.953 179.276 162.464 179.552 162.021C180.057 161.198 180.994 161.198 181.536 162C181.963 162.635 182.948 165.828 182.963 166.74ZM117.541 148.745C117.39 148.286 117.51 147.927 117.718 147.568C117.786 147.448 117.869 147.328 117.958 147.203C120.531 143.516 121.645 139.464 120.849 134.964C122.109 134.542 122.297 134.609 122.599 135.682C123.062 137.313 122.786 138.938 122.505 140.547C122.317 141.599 121.994 142.625 121.744 143.667C121.375 145.13 121.807 145.646 123.307 145.495C123.739 145.453 124.161 145.286 124.583 145.182C125.031 145.073 125.51 145.031 125.703 145.552C125.901 146.068 125.494 146.385 125.13 146.609C124.239 147.156 123.213 147.495 122.25 147.078C120.937 146.505 120.177 146.875 119.484 148.031C119.078 148.714 118.416 149.13 117.541 148.745ZM130.062 134.083C130.291 134.172 130.51 134.172 130.765 134.068C130.979 133.979 131.218 133.828 131.526 133.625C131.895 133.375 132.203 133.005 132.635 133.453C133.104 133.948 133.047 134.516 132.599 134.958C131.854 135.708 130.895 136.13 129.869 135.786C128.609 135.365 127.427 134.734 127.286 133.146C127.77 133.089 128.265 133.021 128.75 132.964C129.354 133.599 129.718 133.948 130.062 134.083Z" fill="black"/>
</g>
</svg>
