<svg width="61" height="53" viewBox="0 0 61 53" fill="none" xmlns="http://www.w3.org/2000/svg">
<path d="M5.32452 18.3436C5.32452 18.3436 7.82818 17.6985 8.77025 17.719C9.95808 17.7446 11.3149 18.0774 12.0368 18.5126C12.7587 18.9427 15.4467 18.3078 15.4467 18.3078C15.4467 18.3078 16.998 18.4153 16.4553 17.2633C16.1891 16.695 13.3372 15.8349 11.6272 15.5686C9.39488 15.2205 6.32803 15.9629 6.32803 15.9629C6.32803 15.9629 6.113 13.321 5.4986 11.9283C5.15044 11.1296 3.94726 8.46725 2.90279 7.38694C2.22183 6.68039 1.24904 5.91751 0.414491 6.37831C-0.629978 6.95686 0.52201 8.97412 1.42312 10.4487C2.32423 11.9232 3.66566 13.495 4.12645 14.775C4.45925 15.6761 5.32452 18.3436 5.32452 18.3436Z" fill="#6B7E37"/>
<path d="M8.76515 12.3072C8.76515 12.3072 9.8813 9.60387 10.0605 8.30853C10.2397 7.01318 10.3114 4.66824 9.84546 3.40873C9.53826 2.58442 8.94435 2.00075 8.22243 2.32842C7.79236 2.52298 6.84005 3.60841 7.14213 5.71783C7.42884 7.73509 7.649 9.32227 7.649 10.8736C7.649 11.9181 7.4698 13.2902 7.4698 13.2902L8.76515 12.3072Z" fill="#6B7E37"/>
<path d="M7.81299 14.3449C7.81299 14.3449 9.29265 14.0582 11.0181 14.0941C12.7435 14.1299 16.2097 14.8877 18.2628 14.816C20.3159 14.7443 20.6436 13.7715 20.065 13.0138C19.4865 12.256 17.9402 11.0323 14.9451 11.3191C12.6769 11.5392 9.10833 12.7424 9.10833 12.7424L7.81299 14.3449Z" fill="#6B7E37"/>
<path d="M10.4802 29.1928C10.4802 29.1928 10.4444 29.7355 10.086 30.0222C9.702 30.3294 9.22072 30.4165 9.22072 30.4165C9.22072 30.4165 6.30235 27.8207 5.29372 24.7948C4.29021 21.7791 4.66397 19.0246 4.71517 18.4511C4.82269 17.2992 5.47292 15.8195 6.0822 14.8467C6.92699 13.5104 8.46297 11.8925 9.2156 11.1706C9.97336 10.4487 11.1253 9.15332 11.9906 8.21637C12.6972 7.4535 14.7195 5.31336 15.4517 4.75528C16.8187 3.71081 18.8411 2.37451 19.7064 3.56745C20.5717 4.75528 18.7694 6.7367 17.3256 7.70949C15.8818 8.68228 13.9004 9.90595 12.9634 10.3411C12.4463 10.5818 10.6594 11.7491 9.75832 12.7219C8.85721 13.6947 7.3417 15.3177 6.80411 16.864C6.26139 18.4153 6.11803 19.9001 6.29723 22.0198C6.47643 24.1445 7.74106 26.3768 8.13529 26.9554C8.86745 28.0408 10.4802 29.1928 10.4802 29.1928Z" fill="#6B7E37"/>
<path d="M23.8484 24.0729C23.8484 24.0729 22.6247 20.2892 24.2784 15.241C25.9885 10.034 28.6406 6.88008 30.6221 5.22122C33.9859 2.40524 36.2796 1.93933 37.1807 2.73292C38.0255 3.47531 38.0101 4.57098 37.7234 5.83049C37.5545 6.57288 36.4639 8.17543 36.4639 8.17543C36.4639 8.17543 37.1398 8.16007 37.7234 8.93318C38.6245 10.121 38.1535 12.9319 38.1535 12.9319L34.0473 22.8441L28.4256 26.341L23.8484 24.0729Z" fill="#B0B0B0"/>
<path d="M27.6578 24.8562C27.6578 24.8562 24.4271 23.4124 23.2393 21.5897C20.9353 18.0569 17.5971 17.2889 15.503 17.3145C10.3626 17.3657 8.4375 20.8217 8.4375 20.8217L8.67814 24.8101C8.67814 24.8101 10.89 27.6927 10.9821 28.1279C11.0743 28.5631 10.2858 31.5633 12.2775 37.1595C13.88 41.6548 19.4864 46.3395 26.3573 47.2048C33.2283 48.0701 35.7268 47.3481 35.7268 47.3481C35.7268 47.3481 38.7783 52.8521 39.3057 52.8009C39.833 52.7548 40.8929 51.5772 41.8759 51.142C43.4119 50.4662 46.4429 49.0889 48.3168 46.744C51.486 42.7812 50.9228 40.2877 51.655 38.7671C52.2796 37.4718 52.8787 36.5553 52.7865 36.074C52.6943 35.5927 50.0473 35.2804 48.4601 35.2087C47.303 35.1575 45.936 35.0654 44.8557 34.922C43.929 34.7992 42.7872 34.1796 42.7872 34.1796L45.9565 31.5377L46.535 27.2114L49.7555 24.2777L49.9961 21.2978L54.4146 18.272L57.0565 14.5702V11.4931L59.0738 8.17542C59.0738 8.17542 60.1797 5.97384 59.8418 5.682C59.5039 5.39017 58.8588 5.01641 57.6812 5.76904C57.2511 6.04552 58.3928 4.33546 59.0124 3.37803C59.806 2.15436 59.9954 0.833411 59.5192 0.352136C59.038 -0.12914 58.5106 -0.154739 55.9506 0.531334C52.6175 1.42221 48.1683 2.88651 41.9169 8.46213C35.6654 14.0378 27.6578 24.8562 27.6578 24.8562Z" fill="#E0E0E0"/>
<path d="M59.5039 5.46692C59.5039 5.46692 59.2018 7.84769 57.7989 9.37344C56.2425 11.063 53.5443 13.0137 52.3923 13.6281C51.2403 14.2425 48.2502 15.6095 47.7792 15.7887C47.3082 15.9679 46.5914 16.3673 46.8064 16.869C47.0215 17.3759 47.5283 17.4476 48.2502 17.1199C48.9722 16.7974 52.2489 15.0873 53.0067 14.6675C53.8719 14.1862 56.0121 12.8908 56.1759 13.5155C56.3705 14.2374 54.9318 16.1215 53.2115 17.8418C51.1942 19.8591 48.3885 21.3746 47.4874 21.7688C46.5863 22.1631 45.2192 22.7058 44.784 22.885C44.354 23.0642 43.3761 23.4635 43.5962 24.1087C43.8112 24.7589 45.1117 24.3032 45.5623 24.165C46.6067 23.8424 49.1462 22.3832 49.2538 22.7416C49.3613 23.1 49.1104 24.0011 48.2093 25.0456C47.3082 26.0901 44.5332 27.5339 43.5604 28.0715C42.5876 28.6091 42.1933 28.7576 41.9015 28.8651C41.6148 28.9726 40.857 29.2235 41.0004 29.9096C41.1438 30.5956 41.9169 30.3396 42.3162 30.1963C42.5876 30.099 45.3268 28.7166 45.6135 28.6091C45.9002 28.5016 46.0077 29.5819 45.6135 30.4267C45.2551 31.1998 44.098 32.2852 42.946 33.2222C42.0397 33.9594 40.857 34.6301 40.5652 34.7735C40.2785 34.9169 39.3774 35.3879 39.5566 35.8538C39.7358 36.3249 40.4218 36.3607 41.323 35.9255C42.2241 35.4954 46.832 32.2596 47.3031 29.7252C47.5539 28.3736 47.3747 27.6363 47.3747 27.6363C47.3747 27.6363 49.863 25.3682 50.3289 24.1752C50.8 22.9874 50.7232 21.9071 50.7232 21.9071C50.7232 21.9071 53.831 19.4341 55.4387 17.5807C56.8876 15.9116 57.799 13.8944 57.9679 12.9574C58.1164 12.1382 58.0037 11.3497 58.0037 11.3497C58.0037 11.3497 59.6985 8.89728 60.1285 7.45858C60.6098 5.90723 59.5039 5.46692 59.5039 5.46692Z" fill="#B0B0B0"/>
<path d="M58.9865 0.0346935C58.9865 0.0346935 59.1299 1.07916 58.6281 2.26699C57.8243 4.15625 55.9913 5.5796 54.5219 6.48583C52.9347 7.45862 50.9533 8.32389 50.6308 8.50309C50.3082 8.68229 49.7501 9.097 49.9805 9.65508C50.2314 10.2695 50.9533 10.0135 51.3885 9.79844C51.8186 9.5834 56.6518 6.84423 57.5888 5.90728C58.2236 5.2724 59.8211 3.81834 60.1846 2.30283C60.8348 -0.461941 58.9865 0.0346935 58.9865 0.0346935Z" fill="#B0B0B0"/>
<path d="M15.5744 23.1717C15.5744 23.996 15.0368 24.7077 14.2279 24.7077C13.4189 24.7077 12.7533 23.9858 12.6407 23.1717C12.5229 22.3065 13.1527 21.646 13.9616 21.6101C15.0214 21.5641 15.5744 22.3525 15.5744 23.1717Z" fill="#2D2D2D"/>
<path d="M8.77523 20.3609C8.77523 20.3609 2.35993 22.6649 2.40601 23.1462C2.43673 23.4329 5.19126 24.4927 5.19126 24.4927L5.08374 24.0217L6.80404 24.3237L7.11636 24.9945L9.18482 25.4501C9.18482 25.4501 9.35378 23.694 9.21042 22.3526C9.0773 21.1391 8.77523 20.3609 8.77523 20.3609Z" fill="#FFC300"/>
</svg>
