<svg width="46" height="42" viewBox="0 0 46 42" fill="none" xmlns="http://www.w3.org/2000/svg">
<path d="M10.5406 36.019C5.3432 32.656 3.27951 19.5859 4.96104 13.7006C6.18397 9.26749 10.9228 2.77069 15.2031 1.08917C18.7954 -0.363056 27.0502 -0.363056 30.5661 1.08917C34.8463 2.77069 39.5852 9.26749 40.8081 13.7006C42.4896 19.6624 41.1903 32.656 36.0692 36.019C25.2158 43.0509 21.3941 43.0509 10.5406 36.019Z" fill="#F5D1AC"/>
<path d="M2.36278 15.0764C5.11437 21.1146 5.80226 21.3439 8.40098 14.1592C9.77678 10.3376 8.78315 8.0446 10.4647 5.59874C11.3819 4.22295 13.4456 1.92996 13.4456 1.92996C13.4456 1.92996 -2.83466 3.61149 2.36278 15.0764Z" fill="#423223"/>
<path d="M9.3179 1.70066C5.19052 4.37582 -3.59927 3.30576 1.59817 14.6943C4.34976 20.7325 5.03765 20.9618 7.63637 13.7771C9.01217 9.95542 8.01854 7.66243 9.70006 5.21658C10.6173 3.84079 13.4453 1.92996 13.4453 1.92996C13.4453 1.92996 12.1459 -0.133727 9.3179 1.70066Z" fill="#947151"/>
<path d="M43.4837 15C40.7321 21.0382 40.0442 21.2675 37.4455 14.0828C36.0697 10.2612 37.0633 7.96818 35.3818 5.52233C34.4646 4.14653 32.4009 1.85355 32.4009 1.85355C32.4009 1.85355 48.6811 3.6115 43.4837 15Z" fill="#423223"/>
<path d="M36.5283 1.70066C40.6556 4.37582 49.4454 3.30576 44.248 14.6943C41.4964 20.7325 40.8085 20.9618 38.2098 13.7771C36.834 9.95542 37.8276 7.66243 36.1461 5.21658C35.2289 3.84079 32.4009 1.92996 32.4009 1.92996C32.4009 1.92996 33.7002 -0.133727 36.5283 1.70066Z" fill="#947151"/>
<path d="M11.9932 24.2483C14.526 24.2483 16.5792 22.1951 16.5792 19.6624C16.5792 17.1296 14.526 15.0764 11.9932 15.0764C9.46044 15.0764 7.40723 17.1296 7.40723 19.6624C7.40723 22.1951 9.46044 24.2483 11.9932 24.2483Z" fill="white"/>
<path d="M10.8467 23.1018C12.7463 23.1018 14.2862 21.5619 14.2862 19.6624C14.2862 17.7628 12.7463 16.2229 10.8467 16.2229C8.94714 16.2229 7.40723 17.7628 7.40723 19.6624C7.40723 21.5619 8.94714 23.1018 10.8467 23.1018Z" fill="#3E4347"/>
<path d="M33.8531 24.2483C36.3858 24.2483 38.439 22.1951 38.439 19.6624C38.439 17.1296 36.3858 15.0764 33.8531 15.0764C31.3203 15.0764 29.2671 17.1296 29.2671 19.6624C29.2671 22.1951 31.3203 24.2483 33.8531 24.2483Z" fill="white"/>
<path d="M34.9995 23.1018C36.8991 23.1018 38.439 21.5619 38.439 19.6624C38.439 17.7628 36.8991 16.2229 34.9995 16.2229C33.1 16.2229 31.5601 17.7628 31.5601 19.6624C31.5601 21.5619 33.1 23.1018 34.9995 23.1018Z" fill="#3E4347"/>
<path d="M15.0503 33.4967L18.5662 37.2419C20.7063 39.4585 25.063 39.4585 27.2031 37.2419L30.7955 33.4967L27.1267 29.675H18.7191L15.0503 33.4967Z" fill="#7D644B"/>
<path d="M22.9232 26.4649C22.9232 26.4649 19.178 31.8152 19.6366 34.3375C20.248 38.0063 25.5219 38.0063 26.2098 34.3375C26.6684 31.8152 22.9232 26.4649 22.9232 26.4649Z" fill="#F15A61"/>
<path d="M22.9233 35.7133L23.764 30.5923H22.0825L22.9233 35.7133Z" fill="#BA454B"/>
<path d="M19.1011 27.9171H26.7444V31.4331H19.1011V27.9171Z" fill="#423223"/>
<path d="M34.9995 28.7579L29.5728 23.0254C26.2861 19.5859 19.56 19.5859 16.2734 23.0254L10.8467 28.7579C9.31803 30.363 9.31803 33.0381 10.8467 34.6432C12.3753 36.2483 14.8976 36.2483 16.4263 34.6432L21.853 28.9107C22.3881 28.3757 23.3817 28.3757 23.9167 28.9107L29.3435 34.6432C30.8721 36.2483 33.3944 36.2483 34.9231 34.6432C36.6046 33.0381 36.6046 30.363 34.9995 28.7579Z" fill="#947151"/>
<path d="M18.4137 23.484C18.4137 21.4968 20.4009 21.1146 22.9232 21.1146C25.4455 21.1146 27.4328 21.4968 27.4328 23.484C27.4328 25.0891 23.8404 26.4649 22.9232 26.4649C22.006 26.4649 18.4137 25.0127 18.4137 23.484ZM16.2812 26.0155L17.0371 25.2573L17.7946 26.0132L17.0387 26.7706L16.2812 26.0155ZM14.4751 28.1548L15.231 27.3974L15.9877 28.1533L15.2325 28.91L14.4751 28.1548ZM16.9041 28.8825L17.6601 28.125L18.4175 28.8802L17.6624 29.6384L16.9041 28.8825ZM28.0465 25.9971L28.8047 25.242L29.5599 25.9994L28.8025 26.7553L28.0465 25.9971ZM29.9 28.1174L30.6582 27.3615L31.4134 28.1189L30.656 28.8748L29.9 28.1174ZM27.4687 28.9192L28.2261 28.164L28.9821 28.9207L28.2246 29.6774L27.4687 28.9192Z" fill="#3E4347"/>
</svg>
